<?xml version="1.0" encoding="utf-8"?>
<svg xmlns="http://www.w3.org/2000/svg" height="682" viewBox="0 0 682 682" width="682">
<defs>
<radialGradient cx="571.42" cy="78.90" gradientUnits="userSpaceOnUse" id="grad17" r="32.96">
<stop offset="0.0000" stop-color="#ffcc59"/>
<stop offset="0.2667" stop-color="#fecb5a"/>
<stop offset="0.8667" stop-color="#f7cd6e"/>
<stop offset="1.0000" stop-color="#eecd7f"/>
</radialGradient>
</defs>
<defs>
    <mask id="bw-holes">
<rect fill="white" height="682" width="682"/>
<path d="M371.22 328.04 c3.67 1.02 9.78 5.36 9.78 6.95 0 1.43 -6.13 3.01 -11.69 3.01&#xA;-6.61 0 -17.31 -4.99 -17.31 -8.07 0 -2.5 12.57 -3.73 19.22 -1.88z" fill="black"/>
</mask>
  </defs>
<path d="M224 16.12 c-7.06 1.14 -10.83 2.69 -12.04 4.95 -1.61 3.01 -1.08 7.51 1.25&#xA;10.54 5.71 7.44 23.16 27.53 25.08 28.88 1.51 1.06 4.85 1.35 10.81 1.35&#xA;l8.36 .16 -3.67 3.02 c-4.31 3.55 -5.34 6.07 -3.73 9.09 1.04 1.94 .96 2.11&#xA;-.69 1.47 -6.13 -2.36 -21.94 -5.69 -31.62 -6.66 -40.6 -4.07 -82.76 11.18&#xA;-112.05 40.52 -4.35 4.35 -4.77 5.19 -4.5 8.83 .22 2.94 .97 4.5 2.8 5.8 2.06&#xA;1.46 44.45 10.92 48.94 10.92 .65 0 3.51 -2.18 6.37 -4.86 5.5 -5.15 13.46&#xA;-11.14 14.78 -11.14 .44 0 -.3 2.39 -1.64 5.31 -5.23 11.42 -4.01 14.89 5.68&#xA;16.19 8.46 1.14 8.55 1.86 .63 4.92 -24.26 9.4 -48.47 28.95 -62.92 50.81&#xA;-12.17 18.42 -19.5 40.53 -20.09 60.62 -.2 6.93 -.05 7.5 2.56 9.75 3.85 3.31&#xA;5.97 3.04 16.47 -2.07 5.04 -2.45 14.23 -6.78 20.43 -9.61 12.74 -5.83 14.77&#xA;-7.59 14.77 -12.83 0 -3.83 1.98 -12.43 4.06 -17.6 1.2 -3 1.21 -3 2.97 3.76&#xA;2.32 8.89 4.23 11.74 7.89 11.74 1.58 0 8.61 -2.71 15.62 -6.02 7.01 -3.31&#xA;12.9 -5.87 13.08 -5.69 .18 .18 -1.64 2.96 -4.05 6.17 -29.96 40.06 -34.86&#xA;90.4 -12.94 133.17 5.27 10.27 7.54 13.03 11.43 13.89 4.16 .91 7.34 -1.27&#xA;11.68 -8.01 11.8 -18.33 20.18 -32.31 20.76 -34.62 .45 -1.82 -.31 -4.87&#xA;-2.49 -10 -1.73 -4.06 -3.74 -10.22 -4.47 -13.69 l-1.33 -6.32 7.78 7.57&#xA;c9.79 9.53 11.97 9.85 17.04 2.57 1.34 -1.93 3.69 -4.85 5.23 -6.5 6.42 -6.89&#xA;22.71 -30.12 22.72 -32.4 .01 -1.32 -.71 -5.96 -1.59 -10.31 -.88 -4.35 -1.35&#xA;-8.17 -1.03 -8.48 .31 -.31 2.13 .8 4.04 2.48 1.91 1.67 4.37 3.33 5.47 3.68&#xA;2.72 .86 11.62 -3.75 13.86 -7.18 .97 -1.49 3.57 -4.54 5.77 -6.77 15.16&#xA;-15.4 36.01 -39.13 44.09 -50.17 3.15 -4.31 5.86 -8 6.02 -8.21 .16 -.2 5.6&#xA;4.6 12.09 10.67 6.49 6.07 17.87 16.07 25.3 22.22 7.43 6.15 14.54 12.48 15.8&#xA;14.06 3.81 4.75 15.2 8.9 15.2 5.54 0 -.76 1.65 -2.64 3.66 -4.17 l3.66 -2.79&#xA;-.7 3.92 c-.38 2.16 -.94 6.17 -1.24 8.92 l-.55 5 7.96 9.07 c4.38 4.99 10.53&#xA;12.41 13.68 16.5 8.98 11.65 11.63 12.05 20.9 3.12 l4.87 -4.69 -.66 4.38&#xA;c-.36 2.41 -1.54 7.01 -2.62 10.22 -1.68 4.99 -2.54 7.43 -1.04 11.13 1.5 3.7&#xA;5.37 8.65 13.14 18.66 14.16 18.23 16.15 20.02 21.43 19.22 2.84 -.43 4.35&#xA;-1.9 6.71 -6.52 8.47 -16.61 12.71 -43.99 9.85 -63.57 -2.68 -18.33 -10.87&#xA;-38.83 -20.79 -52.07 -2.7 -3.61 -5.24 -7.08 -5.63 -7.71 -.84 -1.36 4.18 .31&#xA;24.48 8.13 8.04 3.1 16.02 5.63 17.73 5.63 3.86 0 5.73 -2.64 6.71 -9.5 .39&#xA;-2.75 1.06 -5.9 1.48 -7 .68 -1.76 .96 -1.56 2.37 1.75 1.98 4.6 4.58 14.43&#xA;4.58 17.27 0 1.15 .57 2.87 1.26 3.82 1.59 2.17 44.28 19.66 47.99 19.66 7.02&#xA;0 8.42 -7.33 4.69 -24.54 -3.96 -18.3 -12.9 -36.33 -25.53 -51.5 -6.72 -8.08&#xA;-19.11 -19.75 -25.15 -23.7 -2.63 -1.72 -2.12 -1.79 22.96 -3.33 27.02 -1.66&#xA;28.05 -1.89 29.91 -6.8 3.4 -8.95 -25.7 -37.89 -50.64 -50.37 -19.28 -9.65&#xA;-36.73 -13.77 -61.23 -14.47 l-18.23 -.52 3.08 -2.88 c3.76 -3.51 3.37 -6.64&#xA;-1.45 -11.73 l-3.18 -3.36 4.49 .73 c2.47 .4 6.24 1.35 8.38 2.11 6.89 2.43&#xA;8.55 1.88 22.72 -7.63 18.87 -12.66 21.25 -14.79 21.25 -18.93 0 -5.18 -4.28&#xA;-8.3 -17.02 -12.39 -14.78 -4.75 -27.13 -6.67 -42.86 -6.67 -33.51 0 -61.65&#xA;10.83 -84.26 32.44 -9.1 8.69 -17.84 20.12 -23.87 31.22 -3.95 7.27 -4.28 7.6&#xA;-5.15 5.3 -13.37 -35.14 -35.72 -57.53 -68.24 -68.36 -15.44 -5.15 -39.76&#xA;-7.09 -55.94 -4.47z m46.06 15.16 c9.7 2.55 22.76 8.48 30.94 14.05 28.71&#xA;19.56 44.04 58.55 38.87 98.85 -.62 4.85 -1.45 8.82 -1.85 8.82 -.39 0 -1.57&#xA;-1.91 -2.62 -4.25 -1.04 -2.34 -4.99 -8.98 -8.77 -14.75 -8.27 -12.64 -27.15&#xA;-31.99 -41.86 -42.91 -9.68 -7.19 -19.08 -16.65 -18.45 -18.58 .18 -.56 3.5&#xA;-2.36 7.37 -4.01 3.87 -1.65 8.07 -3.45 9.34 -4 12.62 -5.47 -6.92 -15.49&#xA;-30.24 -15.51 l-8.29 -.01 -7.28 -8.49 c-4 -4.67 -7.52 -9.13 -7.82 -9.91&#xA;-.83 -2.17 1.85 -2.51 17.1 -2.16 10.97 .26 16.07 .87 23.56 2.84z m221.19&#xA;5.28 c5.91 1.57 10.75 3.33 10.74 3.9 -.01 1.64 -16.87 12.54 -19.4 12.54&#xA;-1.25 0 -5.83 -.94 -10.18 -2.09 -11.33 -2.99 -31.23 -3.26 -34.34 -.47 -3.09&#xA;2.78 -2.23 5.48 2.93 9.27 7.76 5.7 13 10.38 12.98 11.61 -.01 .65 -4.08 3.84&#xA;-9.05 7.09 l-9.03 5.91 -14.29 -1.31 c-17.97 -1.64 -23.25 -1.14 -26.38 2.51&#xA;-2.23 2.6 -2.26 2.8 -.59 4.65 .96 1.06 3.46 2.89 5.55 4.07 2.09 1.18 3.79&#xA;2.62 3.77 3.2 -.02 .59 -4.83 4.22 -10.69 8.07 -7.23 4.75 -14.85 11.09&#xA;-23.72 19.74 -7.19 7.01 -13.22 12.74 -13.41 12.75 -.19 .01 -.18 -6.63 .03&#xA;-14.74 .37 -14.64 .4 -14.82 4.44 -24.42 14.65 -34.81 42.68 -57.37 79.87&#xA;-64.28 13.43 -2.49 37.38 -1.54 50.75 2.01z m-262.97 47.05 c31.15 5.91 62.51&#xA;25.5 81.07 50.65 6.39 8.67 15.12 23.59 14.29 24.43 -.33 .33 -2.34 -.56&#xA;-4.46 -1.96 -13.57 -8.98 -38.63 -18.53 -56.25 -21.43 -5.73 -.94 -10.58&#xA;-1.82 -10.78 -1.96 -.2 -.13 1.26 -2.22 3.25 -4.65 1.99 -2.42 3.61 -5.23&#xA;3.61 -6.23 0 -2.62 -2.93 -5.48 -5.62 -5.48 -4.28 0 -13.52 4.18 -22.48 10.17&#xA;-8.32 5.57 -9.32 5.97 -15.15 6.14 -3.55 .1 -11.35 -.9 -18.06 -2.32 l-11.81&#xA;-2.5 .57 -2.92 c.32 -1.61 3.27 -7.31 6.56 -12.67 3.29 -5.36 5.99 -10.31&#xA;5.99 -11 0 -2.13 -3.19 -4.91 -5.63 -4.91 -6.76 0 -24.42 8.92 -35.82 18.09&#xA;l-7.45 5.99 -14.8 -2.89 c-10.02 -1.96 -14.8 -3.31 -14.8 -4.19 0 -.72 2.25&#xA;-2.78 5 -4.59 2.75 -1.81 6.34 -4.47 7.98 -5.93 10.29 -9.13 37.04 -19.17&#xA;57.16 -21.45 9.76 -1.11 27.35 -.37 37.64 1.58z m276.22 12.41 c23.56 3.97&#xA;46.18 14.79 62.82 30.03 6.48 5.94 11.3 11.65 10.5 12.45 -.22 .22 -7.31 .89&#xA;-15.76 1.48 l-15.37 1.09 -6.36 -6.96 c-7.6 -8.32 -16.4 -15.12 -25.56 -19.73&#xA;-7.82 -3.94 -8.85 -4.07 -11.24 -1.42 -2.17 2.4 -1.85 4.01 2.97 14.85 2.03&#xA;4.58 3.54 8.48 3.34 8.67 -.19 .19 -4.18 -.76 -8.85 -2.12 -42.89 -12.48&#xA;-89.23 -6.57 -131.26 16.74 -3.17 1.76 -6.02 2.94 -6.34 2.62 -.32 -.32 2.84&#xA;-4.62 7.02 -9.57 19.61 -23.24 48.94 -40.69 79.16 -47.1 20.65 -4.38 33.62&#xA;-4.63 54.92 -1.03z m32.48 53.6 c3.1 4.32 3.1 4.32 -3.87 .3 -5.81 -3.35&#xA;-7.08 -4.56 -7.62 -7.22 -.35 -1.76 -.88 -4.1 -1.18 -5.2 -.68 -2.55 8.31&#xA;6.06 12.67 12.13z m-50.72 -3.68 c34.27 7.35 62.45 25.64 79.24 51.43 7.79&#xA;11.96 12.44 23.31 15.91 38.87 .85 3.81 .01 3.66 -15.55 -2.77 l-13.37 -5.52&#xA;-2.26 -8.23 c-2.83 -10.33 -7.8 -20.33 -14.52 -29.2 -6.68 -8.82 -9.72 -11.14&#xA;-12.57 -9.61 -3.34 1.79 -3.96 4.04 -3.03 11.08 1.1 8.31 .11 20.98 -1.71&#xA;21.67 -.73 .28 -5.97 -1.28 -11.63 -3.46 -5.66 -2.19 -11.9 -4.49 -13.86&#xA;-5.11 -3.26 -1.03 -4.08 -2.16 -9.31 -12.66 -4.36 -8.76 -7.31 -13.2 -12.31&#xA;-18.5 -7.42 -7.87 -10.44 -9.25 -13.51 -6.18 -1.9 1.9 -1.95 2.52 -.91 10.29&#xA;1.41 10.5 1.4 11.95 -.14 11.94 -.69 -.01 -6.09 -2.45 -12.01 -5.42 -20.72&#xA;-10.42 -36.28 -14.48 -58.49 -15.27 -8.94 -.32 -16.25 -.87 -16.25 -1.22 0&#xA;-.68 2.33 -1.94 17.1 -9.21 14.55 -7.17 31.79 -12.28 51.4 -15.25 7.9 -1.19&#xA;38.25 .29 47.77 2.33z m-240.48 2.08 c19.89 2.12 37.31 6.76 52.47 13.99&#xA;10.07 4.8 17.74 9.14 17.74 10.03 0 .36 -5.96 .93 -13.25 1.25 -13.89 .62&#xA;-25.52 2.73 -39.75 7.24 -9.28 2.94 -25.3 10.11 -29.9 13.39 -1.6 1.14 -3.21&#xA;2.07 -3.58 2.07 -.37 0 -.54 -4.9 -.38 -10.89 .32 -11.78 -.45 -14.11 -4.64&#xA;-14.11 -5.31 0 -19.5 20.73 -23.99 35.03 l-1.73 5.53 -14.14 6.23 c-7.77 3.43&#xA;-14.42 6.22 -14.78 6.22 -1.09 -.02 -2.1 -7.01 -2.75 -18.91 -.6 -11.06 -.7&#xA;-11.46 -3.46 -13.5 l-2.85 -2.1 -4.42 4.87 c-6.04 6.65 -13.86 22.87 -16.93&#xA;35.11 -1.38 5.49 -2.83 10.29 -3.23 10.68 -1.08 1.04 -24.99 11.85 -26.21&#xA;11.85 -.58 0 -.86 -1.01 -.62 -2.25 3.37 -17.58 5.57 -24.62 11.16 -35.75&#xA;20.09 -40.04 59.92 -63.65 112.74 -66.83 1.53 -.09 7.16 .3 12.5 .87z m155.21&#xA;37.58 c54.98 9.6 92.08 48.12 95.64 99.31 .59 8.44 -.7 23.32 -2.54 29.44&#xA;-.52 1.72 -1.69 5.75 -2.59 8.94 -.91 3.2 -2.02 5.67 -2.48 5.5 -2.04 -.76&#xA;-18.03 -22.98 -18.02 -25.05 .01 -1.25 .93 -5.18 2.04 -8.74 4.12 -13.15 3.47&#xA;-34.71 -1.2 -39.68 -4.27 -4.54 -6.01 -3.34 -13.33 9.15 -5.03 8.59 -8.17&#xA;12.5 -10.04 12.5 -.64 0 -5.17 -4.79 -10.07 -10.63 l-8.9 -10.63 -.07 -15.62&#xA;c-.06 -12.19 -.45 -16.59 -1.78 -20.07 -4.31 -11.24 -9.18 -10.6 -14.87 1.95&#xA;-1.37 3.02 -3.41 6.62 -4.54 7.99 l-2.05 2.49 -5.35 -4.44 c-31.77 -26.39&#xA;-46.86 -40.34 -45.35 -41.9 1.38 -1.43 20.38 -3.01 29.5 -2.46 4.12 .25 11.32&#xA;1.12 16 1.94z m-79.75 2.04 c3.88 .37 6.75 1.11 6.75 1.74 -.01 3.62 -51.07&#xA;61.61 -54.24 61.61 -1.36 0 -6.56 -8.94 -9.37 -16.11 -3.13 -7.98 -6.59&#xA;-11.86 -9.18 -10.3 -5.79 3.47 -9.24 22.18 -7.33 39.71 .61 5.61 1.36 11.1&#xA;1.67 12.2 .39 1.4 -.8 3.76 -3.9 7.75 -2.45 3.16 -7.06 9.57 -10.23 14.24&#xA;-3.18 4.68 -6.3 8.5 -6.95 8.5 -1.58 0 -9.46 -10.15 -14.03 -18.07 -6.63&#xA;-11.49 -9.47 -13.21 -13.46 -8.18 -2.07 2.62 -2.16 3.49 -1.73 18.25 .42&#xA;14.56 .67 16.18 4.15 26.72 3.62 11 3.66 11.29 2 14.5 -3.08 5.96 -14.62&#xA;23.78 -15.4 23.78 -1.97 0 -9.91 -21.68 -11.9 -32.49 -9.3 -50.52 17.54&#xA;-101.54 67.05 -127.43 22.71 -11.87 53.64 -18.55 76.12 -16.42z m152.75 14.36&#xA;c1.25 3.33 2.06 6.26 1.81 6.51 -.25 .25 -1.83 -1 -3.51 -2.78 -2.57 -2.73&#xA;-2.98 -3.82 -2.57 -6.98 .62 -4.83 1.49 -4.17 4.27 3.25z m-257 1.95 c0 1.96&#xA;-.69 3.33 -2.04 4.05 -1.99 1.07 -2 1.01 -.5 -2.59 .84 -2.02 1.54 -3.85 1.54&#xA;-4.05 0 -.21 .22 -.38 .5 -.38 .28 0 .5 1.33 .5 2.96z M523.74 279.59 c-.41&#xA;.41 -.74 1.99 -.74 3.51 0 2.62 .53 2.93 10.25 6.08 5.58 1.81 8.34 2.68 9.98&#xA;4.36 1.63 1.68 2.14 4.17 3.23 9.21 l.7 3.25 -4.65 0 c-7.22 0 -8.53 1.13&#xA;-8.43 7.29 .05 2.87 .61 9.48 1.25 14.7 1.28 10.41 2.39 11.73 7.21 8.57 1.99&#xA;-1.3 2.45 -2.44 2.45 -6 0 -2.48 -.51 -4.56 -1.18 -4.79 -.65 -.22 -1.45&#xA;-2.92 -1.79 -6.01 -.65 -5.95 .27 -7.01 5.2 -5.99 1.67 .35 5.38 9.94 4.27&#xA;11.05 -1.08 1.08 1.92 3.17 4.56 3.17 4.38 0 4.51 -1.23 1.31 -12.25 -.46&#xA;-1.59 .47 -1.75 10.01 -1.75 l10.52 0 -.56 5.25 c-.31 2.89 -.93 7.95 -1.37&#xA;11.25 -.73 5.36 -.6 6.19 1.22 7.75 1.12 .96 2.88 1.75 3.92 1.75 1.57 0 1.89&#xA;-.75 1.89 -4.45 0 -2.72 .53 -4.76 1.37 -5.25 .89 -.52 1.74 -4.3 2.42 -10.8&#xA;1.31 -12.6 .69 -13.92 -6.96 -14.84 -8.1 -.97 -17.82 -.78 -17.82 .34 0 .55&#xA;-1.5 1 -3.34 1 -1.81 0 -2.62 .2 -3.53 -1.66 -.9 -1.86 -1.89 -5.78 -4.07&#xA;-14.02 l-1.1 -4.18 -9.94 -3.09 c-12.05 -3.74 -15.3 -4.44 -16.27 -3.46z&#xA;M538.26 356.25 c-.63 .8 -.68 4.31 -.15 9.75 .79 8.16 .98 8.63 4.59 11.81&#xA;2.07 1.82 3.92 2.83 4.11 2.25 .22 -.65 4.42 -1.06 11.02 -1.06 10.64 -.01&#xA;18.17 -1.26 18.17 -3.02 0 -2.37 -10.73 -7.03 -11.89 -5.16 -.6 .97 -14.78&#xA;.85 -15.76 -.13 -.19 -.19 -.53 -3.33 -.77 -6.98 -.23 -3.65 -.71 -7.1 -1.07&#xA;-7.67 -.9 -1.45 -7.07 -1.29 -8.26 .22z" fill="#235a24" fill-rule="evenodd" stroke="#235a24" stroke-linejoin="round" stroke-width="0.80"/>
<path d="M229.58 26.87 c-1.6 .35 -3.07 1.1 -3.26 1.68 -.19 .57 3.76 5.86 8.78 11.75&#xA;l9.13 10.71 8.43 0 c15.04 0 32.34 4.81 32.34 9 0 1.14 -.79 2.34 -1.75 2.68&#xA;-6.34 2.2 -16.59 6.79 -18.29 8.18 -1.98 1.62 -1.91 1.77 4.03 8.34 3.33 3.68&#xA;10.43 9.94 15.78 13.91 20.32 15.09 38.86 36.31 48.58 55.6 1.98 3.93 4.03&#xA;7.42 4.56 7.74 4.37 2.7 4.39 -23.85 .02 -42.39 -2.54 -10.78 -7.36 -22.59&#xA;-13.55 -33.19 -6.6 -11.29 -25.43 -30.15 -37.65 -37.7 -20.33 -12.56 -43.66&#xA;-19.21 -57.15 -16.29z M461 34.53 c-.82 .16 -4.88 .84 -9 1.5 -39.23 6.31&#xA;-75.04 34.07 -93.86 72.77 -4.02 8.27 -4.03 8.33 -4.34 21.75 -.17 7.4 -.08&#xA;13.44 .2 13.42 .27 -.02 2.07 -2.08 4 -4.57 7.35 -9.52 23.78 -24.16 36.89&#xA;-32.9 7.2 -4.79 12.86 -9.09 12.57 -9.54 -.28 -.46 -2.98 -2.24 -5.99 -3.96&#xA;-3.7 -2.11 -5.48 -3.77 -5.48 -5.09 0 -4.06 7 -4.76 27.62 -2.73 l12.12 1.19&#xA;10.63 -6.9 c5.85 -3.8 10.63 -7.28 10.63 -7.74 0 -1.29 -6.88 -7.44 -13.25&#xA;-11.84 -6.51 -4.49 -7.44 -7.28 -3 -9.03 4.21 -1.65 22.32 -.31 32.91 2.44&#xA;6.37 1.65 9.72 2.09 11 1.44 3.72 -1.9 21.34 -14.12 21.34 -14.8 0 -.95 -4.25&#xA;-2.59 -11.46 -4.43 -5.26 -1.34 -28.28 -2.02 -33.54 -.99z M189.5 87.6&#xA;c-10.19 1.01 -20.64 2.7 -27.5 4.43 -8.29 2.09 -29.19 9.7 -29.99 10.92 -.28&#xA;.43 -1.9 1.49 -3.6 2.36 -3.54 1.81 -13.16 10.28 -12.41 10.92 .28 .23 8.06&#xA;1.87 17.31 3.63 l16.81 3.21 7.44 -5.98 c16.2 -13.03 38.11 -21.88 39.26&#xA;-15.85 .18 .95 -2.18 5.79 -5.25 10.76 -5.37 8.68 -9.23 16.68 -8.43 17.47&#xA;1.34 1.34 27.34 6.01 32.62 5.85 5.84 -.17 6.83 -.58 15.15 -6.14 9.61 -6.43&#xA;18.9 -10.45 23.02 -9.97 4.03 .47 3.9 4.09 -.34 9.27 -1.97 2.4 -3.58 4.84&#xA;-3.58 5.43 0 1.17 .37 1.27 14 3.59 17.68 3.01 40.92 12.09 56.57 22.1 3.08&#xA;1.97 5.85 3.33 6.16 3.02 .79 -.79 -2.7 -9.61 -3.81 -9.61 -.5 0 -1.03 -.65&#xA;-1.04 -1.34 -.01 -1.9 -17.89 -20.66 -26.64 -27.95 -22.07 -18.37 -46.11&#xA;-30.04 -70.24 -34.09 -9.85 -1.65 -28.53 -2.72 -35.5 -2.02z M464 100.02&#xA;c-23.89 2.9 -50.88 12.72 -69.5 25.3 -8.61 5.81 -22.46 16.02 -26.24 19.34&#xA;-3.69 3.24 -11.73 14.21 -10.97 14.97 .28 .28 4.94 -2.06 10.36 -5.19 43.37&#xA;-25.05 92.45 -31.13 137.05 -16.97 l7.55 2.4 -.54 -3.32 c-.3 -1.83 -2.15&#xA;-6.81 -4.12 -11.07 -5.92 -12.82 -4.45 -14.83 6.8 -9.25 9.6 4.76 18.35 11.51&#xA;25.85 19.96 l6.23 7.01 7.02 -.58 c3.86 -.32 11.63 -.87 17.27 -1.22 7.36&#xA;-.46 10.25 -1.01 10.25 -1.94 0 -1.69 -14.84 -17.45 -16.43 -17.45 -.67 0&#xA;-5.92 -2.45 -11.66 -5.45 -12.18 -6.36 -27.19 -11.59 -41.79 -14.54 -11.93&#xA;-2.42 -35.42 -3.41 -47.12 -1.99z M434.5 148.61 c-22 2.28 -49.42 9.28 -61.72&#xA;15.77 -4.5 2.37 -8.33 4.77 -8.51 5.33 -.22 .66 6.49 1.22 18.95 1.57 25.86&#xA;.74 37.77 3.72 61.58 15.43 7.31 3.59 13.61 6.21 14 5.82 .39 -.39 .55 -4.16&#xA;.36 -8.37 -.38 -8.35 -.6 -12.26 -.4 -14.12 .2 -1.86 .82 -1.69 2.12 -1.87&#xA;1.82 -.26 3.84 1.16 8.67 6.12 5.06 5.18 7.45 8.84 12.13 18.55 5.67 11.75&#xA;5.95 12.14 10.33 13.78 2.48 .93 9.8 3.72 16.27 6.19 6.47 2.47 11.98 4.28&#xA;12.25 4.01 1.42 -1.42 2.52 -16.97 1.68 -23.82 -1 -8.22 -.81 -9.55 1.52&#xA;-10.45 2.49 -.96 5.87 1.93 11.31 9.68 6.53 9.3 10.33 17.2 13.32 27.73 1.47&#xA;5.17 3.14 8.94 4.28 9.69 2.35 1.54 28.88 12.35 30.31 12.35 1.43 0 1.34&#xA;-1.89 -.51 -10 -1.22 -5.38 -3.07 -9.16 -8.38 -17.2 -23.45 -35.44 -56.12&#xA;-56.86 -98.05 -64.25 -9.26 -1.63 -33.49 -2.76 -41.5 -1.94z M224.31 154.1&#xA;c-31.41 3.66 -64.76 20.09 -86.41 42.58 -12.93 13.43 -26.25 33.81 -28.64&#xA;43.83 -2.03 8.51 -2.62 14.5 -1.43 14.5 1.18 0 25.85 -11.16 28.94 -13.09&#xA;1.38 -.86 2.71 -4.3 4.55 -11.81 2.91 -11.84 10.46 -28.22 15.89 -34.49 3.01&#xA;-3.48 3.61 -3.77 5.58 -2.71 1.99 1.06 2.21 1.96 2.21 9.1 -0 8.2 1.66 21.84&#xA;2.91 23.86 .49 .79 5.21 -.86 15.15 -5.31 7.94 -3.55 15.13 -6.87 15.97 -7.37&#xA;.84 -.5 2.35 -3.56 3.36 -6.79 4.16 -13.36 16.84 -32.62 21.87 -33.2 1.59&#xA;-.18 2.35 -.44 2.68 1.02 .33 1.46 .25 4.63 .15 11.3 -.18 11.99 .58 13.83&#xA;4.64 11.18 6.18 -4.04 23.37 -11.66 32.78 -14.53 15.33 -4.68 24.67 -6.29&#xA;40.69 -7.02 8.08 -.37 14.97 -.95 15.31 -1.29 1.83 -1.83 -12.08 -9.01 -24.49&#xA;-12.64 -25.35 -7.41 -48.95 -9.75 -71.69 -7.1z M358.56 183.11 c-3.27 .48&#xA;-6.32 1.25 -6.79 1.72 -1.43 1.43 18.71 19.99 49.02 45.16 l5.29 4.39 2.57&#xA;-2.57 c1.41 -1.41 4.21 -5.88 6.22 -9.94 3.06 -6.17 4.06 -7.37 6.11 -7.37&#xA;2.02 0 2.81 .89 4.43 5 1.66 4.2 1.99 7.5 2.03 20.6 l.06 15.6 9.9 11.9 c5.45&#xA;6.54 10.24 12.03 10.65 12.2 1.47 .59 7.16 -6.46 12.6 -15.61 6.12 -10.3 8.45&#xA;-11.47 11.32 -5.69 2.46 4.96 1.96 28.22 -.79 36.5 -1.18 3.57 -2.13 7.62&#xA;-2.1 9 .05 2.57 18.47 27.31 20.42 27.44 2.47 .16 5.76 -11.89 6.27 -22.94&#xA;.36 -7.79 .91 -11.23 1.87 -11.8 1.85 -1.09 1.77 -3.79 -.1 -3.08 -1.55 .6&#xA;-1.57 .55 -3.55 -10.51 -2.52 -14.06 -11.07 -33.54 -20.07 -45.71 -6.65 -9.01&#xA;-19.57 -22.08 -28.11 -28.44 -25.03 -18.66 -61.8 -29.55 -87.25 -25.84z M310&#xA;185.67 c-8.63 1.73 -30.3 7.87 -36.57 10.36 -21.81 8.67 -37.69 19.08 -53.97&#xA;35.4 -21.51 21.57 -34.3 45.37 -39.03 72.61 -2.09 12.04 -1.52 38.73 .99&#xA;46.46 1.96 6.05 6.88 15.77 8.2 16.21 .96 .32 10.66 -13.91 16.39 -24.06&#xA;l3.13 -5.54 -3.72 -11.3 c-3.47 -10.54 -3.75 -12.32 -4.18 -26.4 -.51 -16.46&#xA;.19 -19.77 4.05 -19.21 1.47 .21 3.57 2.74 6.68 8.02 4.64 7.89 15.4 21.79&#xA;16.86 21.79 .45 0 3.83 -4.45 7.51 -9.9 3.68 -5.44 8.74 -12.53 11.23 -15.74&#xA;3.16 -4.07 4.37 -6.46 3.98 -7.85 -.31 -1.1 -1.06 -6.6 -1.67 -12.2 -2.45&#xA;-22.5 4.22 -46.55 9.79 -35.3 .68 1.37 3.02 6.32 5.2 10.99 2.18 4.68 5.13&#xA;9.59 6.55 10.92 l2.59 2.42 2.64 -2.42 c10.64 -9.78 46.94 -51.16 52.86&#xA;-60.26 2.18 -3.36 1.1 -4.62 -4 -4.66 -1.65 -.01 -5.25 -.21 -8 -.43 -2.75&#xA;-.23 -6.12 -.18 -7.5 .09z" fill="#7cb53b" fill-rule="evenodd" stroke="#7cb53b" stroke-linejoin="round" stroke-width="0.80"/>
<path d="M396.24 244.16 c-1.27 1.27 .35 6.78 2.45 8.34 1.68 1.25 5.59 13.89 4.42&#xA;14.29 -.47 .16 .22 3.98 1.55 8.5 7.59 25.94 15.96 62.64 14.91 65.38 -.34&#xA;.89 .01 2.34 .78 3.22 .77 .88 1.92 4.98 2.56 9.11 4.02 25.9 5.07 33.77 5.96&#xA;44.5 .55 6.6 1.06 12.68 1.14 13.5 .79 7.77 .87 46.88 .11 55.5 -.53 6.05&#xA;-1.22 14.15 -1.52 18 -1.38 17.17 -9.11 53.19 -12.13 56.53 -.81 .89 -1.47&#xA;3.16 -1.47 5.04 -.01 3.84 -1.38 9.69 -3.5 14.92 -.78 1.92 -3.06 8 -5.07&#xA;13.5 -2.01 5.5 -6.38 16 -9.71 23.33 -5.5 12.1 -6.27 13.29 -8.35 12.9 -1.26&#xA;-.24 -2.42 -.06 -2.58 .4 -.16 .46 -3.98 -.04 -8.49 -1.12 -9.83 -2.35 -20.24&#xA;-3.59 -42.3 -5.03 -13.93 -.91 -18.2 -.84 -27.42 .47 -6.01 .85 -11.3 1.55&#xA;-11.75 1.55 -1.95 0 -.38 -4.15 6.76 -17.89 25.16 -48.42 36.41 -91.87 36.41&#xA;-140.65 0 -17.49 -1.47 -40.24 -2.69 -41.45 -.27 -.27 -4.21 -.44 -8.75 -.36&#xA;-20.59 .36 -44.73 11.22 -59.86 26.93 -3.4 3.53 -6.86 6.41 -7.69 6.39 -1.96&#xA;-.04 -5.01 -2.37 -5.01 -3.83 0 -.63 -.45 -1.14 -1 -1.14 -2.07 0 -.84 -2.48&#xA;4.5 -9.08 10.13 -12.54 28.06 -24.68 45 -30.48 4.4 -1.51 8.46 -3.29 9.02&#xA;-3.97 .56 -.68 4.6 -1.97 8.97 -2.87 4.37 -.9 8.27 -1.97 8.66 -2.37 .39 -.4&#xA;.28 -2.95 -.23 -5.66 -.63 -3.36 -.6 -5.14 .1 -5.58 1.12 -.69 .1 -5.64 -5.05&#xA;-24.49 -1.65 -6.05 -4.17 -15.5 -5.6 -21 -1.43 -5.5 -3.19 -11.16 -3.91&#xA;-12.57 -.73 -1.42 -2.2 -5.92 -3.28 -10 -2.93 -11.09 -12.53 -38.88 -17.85&#xA;-51.69 -1.35 -3.24 -1.38 -3.25 -4.34 -1.72 -1.64 .85 -4.13 3.36 -5.54 5.59&#xA;l-2.55 4.04 2.67 8.18 c1.47 4.5 3.23 8.63 3.92 9.18 3.39 2.74 30.64 94.65&#xA;29.28 98.74 -.18 .55 -3.6 1.83 -7.59 2.85 -24.44 6.21 -48.6 22.24 -63.29 42&#xA;-4.09 5.51 -5.68 6.91 -7.78 6.91 -5.77 0 -11.66 8.09 -10.83 14.89 .39 3.19&#xA;-.12 4.23 -4.38 8.91 -2.65 2.92 -5.36 7.11 -6.02 9.32 -.81 2.7 -2.13 4.49&#xA;-4.03 5.47 -3.2 1.66 -7.06 7.18 -8.74 12.49 l-1.13 3.58 -10.37 -3.01&#xA;c-10.33 -3 -10.39 -3 -14.96 -1.26 -2.53 .97 -5.46 2.98 -6.53 4.47 -1.06&#xA;1.49 -5.82 16.19 -10.56 32.66 -9.54 33.14 -9.73 34.89 -4.39 40.97 1.92 2.19&#xA;5.16 4.14 9.4 5.66 3.56 1.28 6.46 2.81 6.46 3.41 0 .6 5.06 2.68 11.25 4.62&#xA;6.19 1.94 22.72 7.22 36.75 11.74 14.03 4.51 27.53 8.44 30 8.72 9.05 1.04&#xA;16.79 -5.03 20.03 -15.74 1.07 -3.52 1.56 -6.54 1.1 -6.69 -.46 -.16 2.02&#xA;-10.27 5.51 -22.48 6.85 -23.91 7.44 -28.45 4.36 -33.49 -2.61 -4.28 -6.49&#xA;-6.53 -16.74 -9.73 -7.1 -2.21 -8.32 -2.9 -7.68 -4.32 .42 -.93 .85 -5.14 .97&#xA;-9.35 .12 -4.44 .96 -9.62 2 -12.33 1.56 -4.07 1.62 -5.3 .54 -9.55 l-1.25&#xA;-4.88 3.52 -3.09 c4.09 -3.59 6.1 -8.74 5.23 -13.39 -.56 -3.01 -.12 -3.73&#xA;5.65 -9.24 7.22 -6.89 12.81 -10.86 21.26 -15.11 7.23 -3.63 21.49 -8.25&#xA;25.49 -8.25 2.66 0 2.95 .37 3.69 4.75 .44 2.61 .77 15.55 .73 28.75 -.08&#xA;25.59 -1.12 35.52 -5.94 57.03 -4.67 20.83 -15.98 53.3 -19.4 55.71 -.98 .69&#xA;-3.25 4.63 -5.03 8.76 -3.27 7.55 -7.78 15.87 -17.65 32.53 l-5.35 9.03&#xA;-10.02 3.29 c-10.26 3.36 -16.02 6.98 -16.02 10.07 -0 2.55 4.23 6.09 7.27&#xA;6.09 1.45 0 12.45 -2.43 24.44 -5.39 27.36 -6.77 36.55 -8.04 57.79 -7.98&#xA;25.63 .07 43.7 3.64 70.82 13.99 10.03 3.83 13.65 4.18 16.03 1.55 3.87 -4.28&#xA;.61 -8.75 -10.35 -14.18 -3.57 -1.77 -6.63 -3.33 -6.78 -3.47 -.15 -.13 3.05&#xA;-7.62 7.11 -16.63 8.99 -19.93 11.89 -27.63 10.7 -28.37 -.5 -.31 .21 -3.81&#xA;1.57 -7.79 13.49 -39.39 19.56 -77.82 19.55 -123.8 l-0 -22.57 13.97 .45&#xA;c33.11 1.06 58.56 -8.48 81.96 -30.73 l7.42 -7.05 -3.47 -2.92 -3.47 -2.92&#xA;-6.27 6.33 c-7.75 7.83 -20.76 16.59 -31.11 20.96 -8.53 3.6 -22.33 7.05&#xA;-24.65 6.16 -.8 -.31 -7.21 -.63 -14.24 -.71 -7.03 -.08 -14.25 -.39 -16.04&#xA;-.68 -3.13 -.5 -3.25 -.7 -3.22 -5.14 .03 -3.78 .5 -4.96 2.58 -6.48 2.31&#xA;-1.68 3.27 -1.75 10.01 -.75 26.58 3.95 52.54 -4.47 71.85 -23.33 l5.52 -5.39&#xA;0 -6.54 c0 -7.92 1.35 -11.21 5.14 -12.53 1.57 -.55 2.86 -1.47 2.86 -2.05 0&#xA;-1.61 4.59 -1.25 6.02 .47 1.77 2.14 -.97 5.04 -5.85 6.18 -2.98 .7 -3.73&#xA;1.37 -3.98 3.58 -.29 2.49 -.02 2.73 3.25 2.84 1.96 .07 4.98 .18 6.72 .25&#xA;1.73 .07 3.87 -.42 4.75 -1.09 2.35 -1.79 3.1 -1.55 3.11 .97 .02 3.58 1.12&#xA;6.75 2.35 6.78 .62 .01 1.96 1.81 2.97 4 1.01 2.19 2.39 3.97 3.08 3.97 .69 0&#xA;3.36 1.07 5.94 2.38 l4.7 2.38 3.44 -4.02 c4.28 -5 6.7 -12.09 6.87 -20.13&#xA;.15 -7.06 -2.6 -14.61 -5.33 -14.61 -.91 0 -2.51 -.62 -3.56 -1.39 -1.04 -.76&#xA;-2.53 -1.15 -3.29 -.85 -.77 .29 -1.74 -.02 -2.16 -.71 -1.1 -1.78 -6.13 .98&#xA;-9.4 5.16 l-2.54 3.25 -3.6 -4.21 c-4.01 -4.69 -10.98 -7.69 -12.43 -5.35&#xA;-.43 .7 -2.31 1.34 -4.17 1.43 -2.6 .12 -4.58 1.33 -8.52 5.16 -4.39 4.28&#xA;-5.31 5.84 -6.34 10.85 -.66 3.22 -.98 6.7 -.71 7.75 .74 2.85 -9.82 11.9&#xA;-19.64 16.83 -16.19 8.12 -34.91 10.29 -52.5 6.07 -6.01 -1.44 -8.95 -2.1&#xA;-10.56 -3.6 -1.61 -1.5 -1.88 -3.83 -2.56 -8.62 -3.95 -27.9 -10.49 -58.44&#xA;-19.65 -91.78 -7.87 -28.67 -8.51 -30.32 -12.01 -31.11 -1.6 -.36 -4.53 -1.36&#xA;-6.51 -2.22 -2.54 -1.11 -3.91 -1.26 -4.66 -.51z m179.76 102.78 c0 1.07 .45&#xA;2.22 1 2.56 1.49 .92 1.21 9.07 -.45 13.03 -3.8 9.1 -12.3 -.31 -9.54 -10.56&#xA;1.46 -5.41 8.99 -9.63 8.99 -5.04z m-326.48 97.6 c10.26 5.84 11.42 6.95 9.39&#xA;8.97 -1.35 1.35 -2.36 1.03 -9.46 -3.01 -4.37 -2.49 -8.73 -4.78 -9.7 -5.08&#xA;-2.75 -.87 -2.17 -5.42 .68 -5.42 .61 0 4.7 2.04 9.08 4.54z m-3.44 14.08&#xA;c3.37 1.97 6.68 8.99 6.84 14.54 .07 2.53 -.11 2.63 -3.92 2.12 -3.87 -.52&#xA;-4.05 -.41 -5.61 3.35 -1.97 4.73 -2.85 5.35 -7.63 5.37 -2.81 .01 -4.55 -.75&#xA;-7 -3.06 -1.8 -1.69 -2.8 -3.27 -2.24 -3.51 .56 -.24 .86 -2.17 .66 -4.3 -.39&#xA;-4.07 1.24 -8.2 5.46 -13.84 2.1 -2.81 2.9 -3.18 6.3 -2.89 2.14 .18 5.35&#xA;1.18 7.14 2.23z m-17.64 32.5 c5.34 2.43 11.29 2.38 15.06 -.11 1.65 -1.09&#xA;3.4 -1.99 3.88 -1.99 .97 -.01 .26 8.68 -.8 9.74 -.6 .6 -30.23 -8.46 -31.74&#xA;-9.71 -.36 -.3 .03 -2.25 .87 -4.33 1.53 -3.79 1.53 -3.79 5.11 .39 1.96 2.3&#xA;5.4 5 7.63 6.02z m-7.95 11.04 c34.73 10.97 35.26 11.33 35.82 14.16 .68 3.38&#xA;-9.5 38.59 -11.61 40.19 -.73 .55 -2.46 5.05 -3.86 10 -2.01 7.14 -2.94 9.06&#xA;-4.51 9.3 -1.98 .3 -9.37 -1.96 -49.09 -14.96 -15.35 -5.03 -21.54 -7.5&#xA;-22.29 -8.9 -.6 -1.12 -.97 -1.36 -.05 -5.38 .92 -4.02 3.15 -11.82 7.73&#xA;-28.06 6.66 -23.56 8.23 -27.5 10.96 -27.5 .86 0 17.46 5.02 36.88 11.15z&#xA;m50.57 16.88 c3.12 1.67 2.43 5.92 -5.07 31.54 -8.47 28.91 -8.61 29.29 -11.7&#xA;30.06 -2.75 .69 -4.14 1.14 -3.49 -3.2 .65 -4.34 3.33 -13.47 8.73 -31.94&#xA;2.57 -8.8 5.4 -18.59 6.28 -21.75 1.68 -6.02 2.1 -6.4 5.24 -4.71z M378&#xA;252.29 c-1.82 .92 -2.5 2.07 -2.5 4.24 0 2.91 .13 2.99 6.33 3.67 3.48 .38&#xA;8.3 1.45 10.71 2.37 7.85 3 9.48 -.71 2.87 -6.51 -5.21 -4.58 -12.63 -6.18&#xA;-17.41 -3.76z M332.18 258.14 c-4.55 1.31 -11.78 8.76 -13.08 13.48 -1.54 5.6&#xA;.01 6.25 5.08 2.13 5.18 -4.19 9.11 -6.26 13.82 -7.25 6.3 -1.32 8.03 -4.97&#xA;3.78 -7.95 -2.48 -1.74 -4.69 -1.83 -9.6 -.42z M383.42 275.37 c-3.96 1.79&#xA;-7.02 5.7 -7.82 10 -1.46 7.79 3.99 11.96 6.81 5.21 2.5 -5.99 6.94 -7.08&#xA;12.28 -3.01 4.35 3.32 6.73 2.89 7.13 -1.3 .25 -2.58 -.45 -4.03 -3.5 -7.3&#xA;-4.38 -4.69 -9.65 -5.97 -14.89 -3.6z" fill="#572f12" fill-rule="evenodd" stroke="#572f12" stroke-linejoin="round" stroke-width="0.80"/>
<path d="M339.56 218.75 c-1.41 2.06 -4.92 7.35 -7.79 11.75 -2.87 4.4 -9.17 11.89&#xA;-13.99 16.65 -4.83 4.76 -8.77 9.03 -8.76 9.5 .01 .47 .65 4.9 1.43 9.85 3.26&#xA;20.78 9.07 43.95 17.05 68 8.16 24.6 11.48 35.68 11.49 38.36 .01 2.22 -.25&#xA;2.32 -4.33 1.71 -5.34 -.8 -6.95 .72 -7.07 6.69 l-.08 4.15 -6.98 1.39 c-4.99&#xA;.99 -7.93 2.23 -10.3 4.31 -1.82 1.6 -6.91 4.72 -11.3 6.93 -11.5 5.78 -20.47&#xA;11.76 -28.97 19.3 -7.96 7.06 -16.94 17.33 -16.94 19.35 0 .68 1.68 2.37 3.73&#xA;3.77 l3.73 2.53 7.52 -7.51 c8.75 -8.74 15.07 -13.18 26.37 -18.54 12.79&#xA;-6.07 21.84 -8.04 38.4 -8.38 l14.25 -.29 .96 3.61 c2.19 8.25 3.35 14.26&#xA;5.03 26.06 1.62 11.37 2.02 12.66 4.61 14.89 2.71 2.33 3.26 2.41 12.37 1.82&#xA;12.59 -.82 15.81 -1.97 26.78 -9.51 11.28 -7.75 18.57 -15.52 22.66 -24.14&#xA;3.04 -6.41 3.09 -6.73 3.09 -22.21 0 -20.19 -.37 -20.76 -9.53 -14.84 -6.46&#xA;4.18 -12.43 6.4 -20.32 7.59 -3.95 .59 -4.53 .43 -5.12 -1.43 -1.01 -3.17 .12&#xA;-5.47 3.72 -7.55 14.35 -8.3 24.69 -26.94 24.74 -44.59 .01 -5.33 -4.42&#xA;-31.72 -9.11 -54.29 -1.73 -8.3 -1.99 -11.25 -1.13 -12.62 .87 -1.4 .59 -3.52&#xA;-1.27 -9.55 -2.38 -7.72 -4.68 -11.5 -7 -11.5 -2.17 0 -27.83 -13.09 -32.97&#xA;-16.83 -2.75 -2 -8.46 -6.9 -12.69 -10.9 -4.23 -4 -8.14 -7.27 -8.69 -7.27&#xA;-.55 0 -2.16 1.69 -3.57 3.75z m52.75 37 c3.22 1.89 5.49 4.78 4.52 5.76 -.33&#xA;.33 -2.33 -.11 -4.43 -.99 -2.1 -.88 -6.42 -1.87 -9.61 -2.2 -4.66 -.49 -5.79&#xA;-.95 -5.79 -2.39 0 -.98 .79 -2.01 1.75 -2.29 3 -.87 10.44 .29 13.56 2.11z&#xA;m-51.89 3.85 c1.87 .72 2.15 4.39 .33 4.4 -3.27 .01 -9.09 2.38 -13.77 5.6&#xA;-5.96 4.1 -7.18 3.77 -4.49 -1.22 3.47 -6.44 12.5 -10.86 17.93 -8.78z m56.83&#xA;20.35 c2.71 3.03 3.76 8.05 1.68 8.05 -.59 0 -2.54 -1.12 -4.34 -2.5 -1.8&#xA;-1.38 -4.29 -2.5 -5.53 -2.5 -2.24 0 -8.19 5.12 -9.32 8 -1.12 2.88 -2.85&#xA;-1.09 -2.17 -4.98 .88 -5.05 2.19 -7 5.76 -8.61 4.86 -2.19 10.63 -1.14 13.92&#xA;2.55z m-5.74 39.3 c-.36 1.79 -1.86 5.72 -3.33 8.74 -3.71 7.61 -7.24 9.5&#xA;-17.75 9.51 -7.01 0 -8.84 -.39 -13.9 -2.99 -5.05 -2.6 -6.23 -3.78 -8.78&#xA;-8.82 -1.62 -3.2 -2.77 -6 -2.55 -6.21 .22 -.22 2.56 .26 5.2 1.05 11.66 3.51&#xA;23.47 2.8 34.08 -2.05 7.04 -3.22 7.82 -3.14 7.04 .79z M546.25 326.66 c-1.57&#xA;.63 -1.64 5.55 -.1 7.09 2.07 2.07 4.85 -.38 4.85 -4.29 0 -3.47 -1.26 -4.21&#xA;-4.75 -2.8z M540.21 345.18 c-1.77 2.3 -3.21 4.61 -3.21 5.14 0 .53 -.71 1.48&#xA;-1.59 2.12 -.96 .7 -1.87 3.52 -2.3 7.11 -1.34 11.06 -8.93 19.21 -25.61&#xA;27.51 -17.06 8.48 -33.27 10.97 -48.31 7.43 -4.88 -1.15 -6.77 -1.24 -8.36&#xA;-.39 -1.98 1.06 -1.95 1.2 1.31 4.63 4 4.21 12.27 8.14 18.71 8.9 2.56 .3&#xA;5.62 1.01 6.81 1.59 1.59 .76 4.22 .58 9.92 -.69 16.38 -3.64 34.26 -13.58&#xA;46.97 -26.1 l6.57 -6.47 -.61 -7.22 c-.34 -3.97 -.82 -8.23 -1.08 -9.47 -.25&#xA;-1.24 -0 -2.25 .56 -2.25 .56 0 1.02 -.86 1.02 -1.92 0 -1.3 .92 -2.12 2.86&#xA;-2.55 1.57 -.35 4.13 -1.95 5.68 -3.57 l2.82 -2.94 -2.35 -2.51 c-3.42 -3.64&#xA;-6.06 -3.19 -9.79 1.68z M567.53 346.97 c-4.34 4.8 -3.9 14.45 .86 18.93 5.06&#xA;4.75 10.61 .19 11.4 -9.35 .54 -6.55 -.27 -7.84 -6.27 -9.88 -4.12 -1.4 -4.45&#xA;-1.39 -5.99 .31z M550.58 364.3 c.38 1.21 1.19 2.55 1.8 2.99 1.23 .87 9.33&#xA;.32 10.36 -.7 1.48 -1.48 -2.81 -3.79 -7.66 -4.13 -4.94 -.34 -5.14 -.26&#xA;-4.49 1.84z M417.9 455.07 c-11.51 6.7 -21.68 9.92 -31.36 9.95 -3.32 .01&#xA;-7.84 .64 -10.04 1.4 -2.2 .76 -7.05 1.71 -10.77 2.1 -9.29 .99 -10.73 2.83&#xA;-10.73 13.81 0 4.43 -.52 13.15 -1.15 19.37 -1.08 10.61 -1.03 11.45 .75&#xA;13.41 1.75 1.93 2.72 2.06 12.4 1.68 9.96 -.39 10.86 -.61 17.5 -4.29 11.69&#xA;-6.47 17.65 -10.92 25.6 -19.14 8.76 -9.06 10.29 -11.65 12.95 -22.08 3.79&#xA;-14.8 2.01 -20.38 -5.16 -16.21z M235.32 459.25 c-5.97 6.14 -8.41 10.54&#xA;-8.65 15.6 -.09 2.01 -.54 3.92 -.98 4.24 -.44 .33 .81 2.01 2.78 3.75 6 5.27&#xA;13.39 4.11 16.17 -2.55 1.37 -3.28 1.73 -3.5 4.9 -2.98 2.7 .44 3.72 .13 4.84&#xA;-1.47 1.24 -1.77 1.16 -2.78 -.62 -8.19 -1.12 -3.39 -2.77 -7 -3.66 -8.02&#xA;-1.32 -1.52 -8.16 -5.64 -9.36 -5.64 -.18 0 -2.62 2.36 -5.43 5.25z M183.63&#xA;494.08 c-3.78 2.97 -4.21 4.02 -11.22 27.3 -4.89 16.25 -6.07 21.33 -5.18&#xA;22.4 2.89 3.48 18.38 9.8 33.77 13.77 12.74 3.29 13.41 3.1 11.48 -3.25 -1.8&#xA;-5.94 -1.85 -8.74 -.19 -10.12 .71 -.59 6.22 -2.42 12.25 -4.06 13.66 -3.73&#xA;14.38 -3.43 16.89 6.87 .95 3.93 1.5 7.76 1.21 8.5 -.29 .75 .06 1.84 .77&#xA;2.43 2.47 2.05 4.67 -2.54 10.33 -21.48 l5.61 -18.75 -2.71 -2.33 c-1.62 -1.4&#xA;-9.2 -4.37 -18.92 -7.43 -8.92 -2.81 -23.64 -7.54 -32.72 -10.52 -9.08 -2.98&#xA;-17 -5.41 -17.62 -5.41 -.61 0 -2.3 .93 -3.76 2.08z m15.61 13.04 l6.18 3.12&#xA;4.62 -1.66 c3.65 -1.31 5.23 -1.43 7.52 -.56 6.06 2.31 5.91 6 -.5 11.92&#xA;-4.51 4.17 -5.03 5.12 -5.97 10.94 -1.23 7.63 -3.28 10.33 -7.53 9.91 -3.02&#xA;-.3 -3.26 -.66 -5.24 -7.72 -.28 -.98 -1.24 -.42 -3.13 1.85 -3.44 4.12 -6.97&#xA;3.95 -9.08 -.43 -2.22 -4.61 -3.34 -6.76 -5.02 -9.67 -1.47 -2.54 -1.45 -2.78&#xA;.33 -4.75 1.19 -1.31 3.11 -2.08 5.22 -2.08 3.86 0 4.39 -1.75 1.35 -4.5&#xA;-3.73 -3.37 -1.57 -7.62 4.78 -9.42 .15 -.04 3.06 1.33 6.46 3.04z M406&#xA;522.58 c-7.94 3.7 -15.41 5.42 -23.6 5.42 -4.42 0 -8.28 .57 -10.04 1.49 -1.8&#xA;.94 -5.67 1.5 -10.39 1.5 -7.81 .01 -10.94 1.21 -12.95 4.97 -1.83 3.42&#xA;-10.12 33.33 -9.82 35.42 .48 3.29 4.5 4.58 14.36 4.6 8.84 .01 9.28 -.1 18&#xA;-4.62 25.35 -13.15 37.64 -25.58 42.86 -43.36 1.52 -5.17 1.51 -5.57 -.1&#xA;-6.75 -1.1 -.81 -1.58 -1.22 -2.58 -1.06 -1 .16 -2.54 .9 -5.74 2.39z M385&#xA;584.78 c-7.11 2.11 -10.55 2.53 -21 2.53 -6.88 0 -14.3 -.42 -16.5 -.94 -5.62&#xA;-1.33 -11.98 -.2 -15.09 2.7 -3.02 2.81 -7.41 10.98 -7.41 13.78 0 3.24 2.07&#xA;3.87 15 4.57 16.39 .88 27.39 2.24 37.35 4.61 6.41 1.53 8.36 1.68 9.29 .71&#xA;1.46 -1.54 8.4 -20.12 9.04 -24.2 .27 -1.71 -.1 -3.74 -.85 -4.65 -1.21 -1.49&#xA;-2.03 -1.41 -9.82 .9z" fill="#cf8c4e" fill-rule="evenodd" stroke="#cf8c4e" stroke-linejoin="round" stroke-width="0.80"/>
<path d="M238 26.86 c0 .63 1.24 1.14 2.75 1.14 4.36 0 21.02 4.77 29.54 8.45 20.11&#xA;8.69 42.19 27.45 51.94 44.16 9.42 16.14 15.01 33.16 16.22 49.42 .94 12.56&#xA;1.49 15.42 2.75 14.16 1.69 -1.69 2.17 -19.13 .82 -29.87 -6.36 -50.56 -43.32&#xA;-85.63 -92.78 -88.06 -8.07 -.4 -11.25 -.23 -11.25 .59z M440.5 32.61 c-23.67&#xA;4.23 -42.65 14.43 -59.37 31.91 -10.3 10.77 -16.86 20.79 -22.37 34.19 -3.77&#xA;9.15 -6.05 20.31 -4.15 20.27 .49 -.01 2.69 -3.93 4.89 -8.72 17.12 -37.25&#xA;49.33 -63.11 89.5 -71.86 4.19 -.91 15.23 -1.93 25 -2.31 14.8 -.57 17.07&#xA;-.86 14.74 -1.87 -7.83 -3.37 -33.59 -4.24 -48.24 -1.62z M190.64 80.21&#xA;c-18.37 1.67 -45.48 11.54 -56.73 20.66 -4.37 3.54 -1.32 3.27 9.71 -.87&#xA;20.49 -7.7 34.91 -10.34 56.38 -10.33 42.85 .02 80.08 17.48 112.42 52.71&#xA;4.88 5.31 9.2 9.54 9.46 9.28 .26 -.26 -.89 -2.73 -2.43 -5.36 -8.46 -14.55&#xA;-23.84 -31.3 -38.08 -41.49 -26.91 -19.27 -57.62 -27.59 -90.73 -24.59z M467&#xA;92.06 c-31.45 3.77 -57.16 14.75 -81.24 34.69 -7.49 6.2 -19.07 18.28 -18.28&#xA;19.07 .46 .46 7.5 -4.29 20.52 -13.85 48.17 -35.36 112.66 -40.56 165.11&#xA;-13.31 10.78 5.6 15.98 6.48 10.25 1.73 -9.9 -8.2 -24.71 -16.33 -38.86&#xA;-21.32 -16.11 -5.68 -42.09 -8.84 -57.5 -7z M438.5 141.62 c-19.07 2.88&#xA;-35.94 7.82 -51.69 15.12 -5.33 2.47 -9.95 5.16 -10.26 5.99 -.43 1.12 -.14&#xA;1.31 1.19 .73 5.08 -2.2 33.54 -9.55 42.94 -11.09 14.92 -2.45 41.26 -2.43&#xA;54.82 .03 42.19 7.67 73.58 27.85 96.21 61.85 5.89 8.84 8.29 11.4 8.29 8.83&#xA;0 -2.64 -7.43 -17.93 -12.48 -25.7 -17.41 -26.75 -46.7 -46.01 -81.25 -53.43&#xA;-9.51 -2.04 -39.87 -3.52 -47.77 -2.33z M226.5 145.67 c-48.25 4.05 -88.2&#xA;29.2 -107.73 67.83 -4.49 8.88 -7.46 16.82 -8.7 23.25 -.42 2.21 -.36 3.72&#xA;-.06 4.16 .3 .44 .84 -.2 1.36 -2.27 1.08 -4.29 9.78 -18.75 17.24 -28.67&#xA;16.98 -22.55 43.12 -40.4 70.98 -48.47 17.44 -5.05 23.87 -5.94 43.4 -5.96&#xA;22.57 -.02 37.46 2.4 59.78 9.73 4.06 1.33 7.13 1.91 6.94 1.31 -.57 -1.85&#xA;-16.69 -9.39 -27.72 -12.98 -12.13 -3.94 -22.5 -6.11 -36.21 -7.57 -9.51&#xA;-1.01 -11.17 -1.04 -19.29 -.36z M374.25 181.69 c-5.82 .78 -3.46 1.81 8.27&#xA;3.62 31.07 4.79 59.02 18.71 78.1 38.89 13.81 14.6 21.76 27.72 27.76 45.8&#xA;4.38 13.19 5.86 23.42 5.44 37.75 -.18 6.19 -.08 11.25 .21 11.25 .9 -0 3.15&#xA;-8.67 3.94 -15.24 7.05 -58.15 -34.14 -109.18 -96.97 -120.14 -9.63 -1.68&#xA;-21.92 -2.56 -26.75 -1.92z M299 186.11 c-35.28 3.99 -65 17.93 -88.62 41.55&#xA;-24.04 24.05 -36.63 54.47 -35.8 86.46 .15 5.84 .8 13.49 1.43 17 1.5 8.3&#xA;4.99 18.88 6.23 18.88 .62 0 .7 -.62 .23 -1.75 -1.7 -4.01 -1.73 -34.54 -.05&#xA;-44.21 4.65 -26.75 17.58 -51.09 38.04 -71.61 15.21 -15.26 31.65 -25.94&#xA;52.96 -34.4 7.62 -3.03 33.06 -10.03 36.45 -10.03 1.04 0 2.44 -.68 3.13 -1.5&#xA;1.45 -1.75 -1.31 -1.83 -14 -.39z" fill="#b1e25c" fill-rule="evenodd" stroke="#b1e25c" stroke-linejoin="round" stroke-width="0.80"/>
<path d="M335.17 201.25 c-7.3 10.1 -17.87 22.51 -32.27 37.91 -6 6.41 -10.9 12.49&#xA;-10.9 13.51 0 1.02 2.04 7.02 4.53 13.34 2.49 6.32 5.6 15.09 6.92 19.49 1.32&#xA;4.4 3.32 10.7 4.44 14 5.74 16.83 12.92 41.83 19.96 69.5 l1.65 6.5 5 1 c2.75&#xA;.55 5.54 1.35 6.2 1.78 3.03 1.96 .03 -9.82 -10.81 -42.51 -8.34 -25.16&#xA;-14.12 -48.12 -17.44 -69.26 -.78 -4.95 -1.42 -9.34 -1.43 -9.77 -.01 -.42&#xA;3.93 -4.7 8.74 -9.5 7.65 -7.62 12.09 -13.42 20.68 -26.98 1.13 -1.78 2.42&#xA;-3.25 2.87 -3.25 .45 -0 4.27 3.27 8.5 7.27 4.23 4 9.94 8.91 12.69 10.9 5.4&#xA;3.92 30.84 16.83 33.17 16.83 1.61 0 1.05 -5.72 -.95 -9.83 -.63 -1.28 -8.58&#xA;-8.54 -17.68 -16.14 -9.1 -7.6 -21.11 -18.14 -26.7 -23.42 -5.59 -5.29 -10.39&#xA;-9.61 -10.68 -9.61 -.29 0 -3.21 3.71 -6.49 8.25z M419.67 342.79 c-.22 .39&#xA;-1.16 3.04 -2.09 5.89 -3.39 10.4 -15.29 25.08 -25.34 31.26 -6.59 4.05 -8.3&#xA;6.63 -6.8 10.24 l1.11 2.69 5.48 -2.23 c11.44 -4.66 25.4 -16.58 31.21 -26.65&#xA;2.63 -4.56 2.68 -8.04 .27 -18.64 -.49 -2.15 -3.09 -3.89 -3.84 -2.57z&#xA;M338.65 406.73 l-3.85 .4 .58 4.18 c1.37 9.85 1.85 53.49 .71 63.7 -3.51&#xA;31.36 -9.54 54.75 -22.03 85.49 -4.49 11.05 -21.02 44.61 -22.5 45.67 -.62&#xA;.45 -.56 1.13 .2 2.04 .97 1.17 2.83 1.11 12.94 -.37 6.49 -.96 14.33 -1.76&#xA;17.41 -1.79 5.34 -.05 5.59 -.16 5.16 -2.41 -.56 -2.93 3.88 -11.93 6.93&#xA;-14.07 1.23 -.86 3.46 -1.57 4.96 -1.57 1.5 0 2.98 -.42 3.29 -.93 .32 -.51&#xA;6.08 -.94 12.81 -.95 14.63 -.03 24.24 -2.18 36.26 -8.13 9.3 -4.6 20.71&#xA;-13.66 22.3 -17.7 2.71 -6.9 3.93 -13.91 2.71 -15.58 -1.06 -1.45 -1.64 -1.18&#xA;-5.11 2.4 -9.02 9.29 -21.2 16.78 -33.92 20.85 -3.85 1.23 -8.83 3.09 -11.07&#xA;4.14 -2.99 1.4 -6.29 1.89 -12.5 1.88 -10.35 -.02 -12.93 -.64 -12.93 -3.11 0&#xA;-2.3 8.62 -32.29 10.04 -34.95 1.23 -2.29 3 -2.7 13.8 -3.21 8.33 -.39 10.59&#xA;-1.42 9.47 -4.33 -.52 -1.36 -.26 -1.45 10.67 -3.41 14.53 -2.61 26.94 -9.25&#xA;37.71 -20.18 l6.19 -6.29 1.14 -8.69 c1.72 -13.11 .59 -13.9 -6.37 -4.49&#xA;-8.68 11.74 -18.26 18.63 -32.16 23.14 -4.4 1.43 -9.35 3.37 -11 4.31 -2.33&#xA;1.34 -5.44 1.72 -14 1.72 l-11 0 .1 -5 c.26 -12.98 1.76 -35.16 2.47 -36.56&#xA;.55 -1.07 3.5 -1.92 9.47 -2.72 8.98 -1.2 11.71 -2.39 10.82 -4.72 -.37 -.97&#xA;.84 -1.55 4.31 -2.06 18.59 -2.71 35.55 -12.58 46 -26.77 4.03 -5.48 4.33&#xA;-6.33 4.33 -12.21 0 -4.62 -.46 -6.78 -1.71 -8.02 -.98 -.98 -1.26 -1.68&#xA;-2.22 -.72 -.97 .96 -2.63 3.59 -6.38 9.28 -5.3 8.04 -15.43 15.95 -25.19&#xA;19.69 -3.85 1.47 -7.68 3.19 -8.5 3.82 -4.62 3.52 -26.89 5.91 -30.37 3.26&#xA;-1.45 -1.1 -2.28 -4.26 -3.64 -13.85 -1.85 -13.06 -4.27 -24.56 -6.12 -29.17&#xA;-1.16 -2.88 -1.39 -2.93 -10.21 -2.02z m36.35 56.27 c0 .55 -1.12 1 -2.5 1&#xA;-1.38 0 -2.5 -.45 -2.5 -1 0 -.55 1.12 -1 2.5 -1 1.38 0 2.5 .45 2.5 1z" fill="#a36131" fill-rule="evenodd" stroke="#a36131" stroke-linejoin="round" stroke-width="0.80"/>
<path d="M247.96 446.57 c-1.2 1.95 -2.02 3.65 -1.82 3.79 5.34 3.67 6.86 3.85 6.86&#xA;.81 0 -.83 .72 -2.3 1.59 -3.26 1.47 -1.63 1.37 -1.87 -1.43 -3.32 -3 -1.55&#xA;-3.03 -1.54 -5.2 1.98z M459.78 565.1 c-8.22 8.68 -19.72 11.8 -31.21 8.46&#xA;-3.18 -.93 -6.03 -1.44 -6.33 -1.14 -1.37 1.37 -7.94 19.64 -7.23 20.09 .44&#xA;.27 4.56 1.19 9.15 2.05 22.74 4.22 51.84 13.46 76.1 24.17 8.38 3.7 16.14&#xA;6.59 17.24 6.43 11.9 -1.77 61.5 -45.38 61.5 -54.08 0 -4.59 -2.74 -4.68&#xA;-11.02 -.36 -6.92 3.61 -7.68 3.78 -16.86 3.78 -8.74 0 -10.09 -.26 -14.85&#xA;-2.9 -2.88 -1.59 -7.01 -4.86 -9.19 -7.25 -2.18 -2.39 -4.34 -4.35 -4.81&#xA;-4.35 -.47 0 -2.51 1.98 -4.53 4.41 -11.87 14.2 -35.61 14.2 -47.48 -0 -2.03&#xA;-2.42 -4.15 -4.38 -4.72 -4.35 -.57 .03 -3.16 2.3 -5.76 5.04z m7.78 19.32&#xA;c2.34 1.71 1.34 3.18 -1.2 1.76 -1.39 -.78 -2.45 -.67 -4.67 .48 -1.58 .82&#xA;-3.17 1.17 -3.53 .78 -.41 -.45 -.25 -.86 .45 -1.11 .61 -.22 1.96 -1.04 3&#xA;-1.83 2.41 -1.82 3.54 -1.84 5.95 -.08z m60.12 4.43 c3.63 2.72 6.91 4.2&#xA;11.22 5.05 3.35 .66 6.1 1.63 6.1 2.15 0 .52 -3.26 .94 -7.25 .94 -5.87 -.01&#xA;-8.07 -.48 -11.6 -2.5 -4.33 -2.48 -4.36 -2.48 -6.81 -.55 -3.24 2.55 -12.18&#xA;4.5 -16.73 3.64 -4.93 -.92 -4.54 -2.19 .89 -2.93 5.43 -.74 11.13 -3.53&#xA;14.42 -7.06 3.15 -3.38 3.68 -3.31 9.75 1.25z M293.98 565.05 c-2.58 1.67&#xA;-16.97 5.95 -19.99 5.95 -2.72 0 -3.03 .42 -4.93 6.79 -2.71 9.09 -8.44 14.21&#xA;-15.93 14.21 -5.83 0 -59.93 -17.46 -62.48 -20.16 -1.32 -1.4 -2.61 -1.79&#xA;-4.53 -1.37 -1.48 .32 -4.69 -.11 -7.13 -.98 -4.41 -1.56 -4.49 -1.54 -10.92&#xA;1.72 -5.99 3.04 -7.2 3.29 -16.12 3.29 -9.2 0 -9.99 -.18 -17.21 -3.84 -8.77&#xA;-4.45 -11.12 -4.47 -11.55 -.09 -.54 5.53 19.13 25.79 40.3 41.52 11.37 8.44&#xA;18.57 12.87 21.93 13.48 1.42 .26 7.04 -1.84 14.69 -5.48 21.55 -10.27 48.74&#xA;-19.17 73.84 -24.17 l11.09 -2.21 2.7 -4.8 c1.48 -2.64 3.5 -5.01 4.49 -5.26&#xA;2.19 -.57 5.09 -6.83 3.59 -7.76 -.62 -.38 -.22 -2.15 1.05 -4.64 1.98 -3.89&#xA;1.99 -4.07 .32 -5.59 -1.2 -1.08 -2.19 -1.27 -3.21 -.62z m-107.41 28.9 c2.16&#xA;1.62 6.07 3.51 8.68 4.19 2.61 .68 4.75 1.6 4.75 2.05 0 1.58 -8.2 .78 -12.96&#xA;-1.27 -4.66 -2.01 -4.94 -2.02 -7.99 -.45 -4.06 2.1 -13.05 3.25 -13.05 1.66&#xA;0 -.63 .69 -1.14 1.53 -1.14 2.12 0 10.81 -4.5 12.4 -6.42 1.75 -2.11 2.09&#xA;-2.04 6.64 1.38z" fill="#2cbebe" fill-rule="evenodd" stroke="#2cbebe" stroke-linejoin="round" stroke-width="0.80"/>
<path d="M577.01 291.86 c-4.13 2.21 -8.63 7.58 -9.56 11.39 -.65 2.66 -.54 2.75 3.44&#xA;2.75 2.75 0 4.11 -.44 4.11 -1.33 0 -2.09 4.19 -5.39 7.82 -6.16 7.04 -1.49&#xA;12.31 4.08 10.72 11.34 -.58 2.63 -5.24 7.15 -7.38 7.15 -1.22 0 -2.17 6.25&#xA;-1.12 7.38 2.76 2.96 13.93 -5.95 15.76 -12.58 3.75 -13.6 -11.6 -26.47&#xA;-23.78 -19.94z M243.94 442.58 c-.93 1.12 -2.25 1.4 -4.54 .97 -5.59 -1.05&#xA;-4.81 1.21 1.51 4.41 5.98 3.02 5.98 3.02 8.04 .13 2.56 -3.59 2.58 -4.73 .12&#xA;-6.05 -2.63 -1.41 -3.6 -1.31 -5.13 .54z M270.98 594.47 c-22.73 4.96 -45.15&#xA;12.11 -64.28 20.5 -8.75 3.84 -11.27 5.95 -8.87 7.43 .46 .28 2.37 .09 4.25&#xA;-.43 26.12 -7.21 68.62 -16.39 72.97 -15.75 2.46 .36 3.13 -.25 6.35 -5.75&#xA;2.83 -4.83 4.29 -7.22 3.01 -7.96 -1.28 -.74 -5.3 .18 -13.43 1.95z M406.5&#xA;608.43 c-2.1 4.72 -3.64 8.76 -3.42 8.96 .23 .21 4.04 2.19 8.47 4.41 9.05&#xA;4.53 10.74 6.08 10.27 9.4 -.48 3.36 -4.93 3.43 -13.34 .23 -26.29 -10.02&#xA;-43.84 -14.07 -53.83 -12.43 -3.39 .56 -12.46 1.87 -20.16 2.93 -15.85 2.18&#xA;-28.58 5.86 -33 9.54 l-3 2.5 3.67 3.45 c8.28 7.79 45.2 15.33 86.11 17.57&#xA;24.12 1.32 56.03 -.18 66.69 -3.14 18.88 -5.25 48.53 -17.21 52.49 -21.17&#xA;1.25 -1.25 1.15 -1.7 -.76 -3.48 -4.97 -4.63 -35.53 -14.92 -61.17 -20.59&#xA;-13.44 -2.97 -19.5 -4.16 -31.61 -6.18 l-3.58 -.6 -3.83 8.59z m44.05 15.07&#xA;c1.92 1.48 1.92 1.52 0 3 -1.07 .83 -3.12 1.5 -4.56 1.5 -1.44 0 -3.49 -.67&#xA;-4.56 -1.5 -1.92 -1.48 -1.92 -1.52 0 -3 1.07 -.83 3.12 -1.5 4.56 -1.5 1.44&#xA;0 3.49 .67 4.56 1.5z" fill="#fcd36d" fill-rule="evenodd" stroke="#fcd36d" stroke-linejoin="round" stroke-width="0.80"/>
<path d="M402.7 271.25 c.28 2.34 1.39 8.52 2.48 13.75 4.41 21.19 8.82 47.74 8.81&#xA;52.96 -.02 8.04 -2.56 17.59 -6.6 24.81 -2.31 4.12 -3.28 6.55 -2.99 7.18 .29&#xA;.63 1.86 -.55 4.65 -3.65 5.68 -6.32 9.5 -13.36 11.52 -21.22 1.54 -6.03 1.51&#xA;-6.59 -1.06 -18.89 -7.16 -34.19 -18.9 -72.57 -16.8 -54.93z M356 321.7 c-.82&#xA;.3 -3.41 2.38 -5.75 4.63 l-4.25 4.09 4.25 4.37 c5.36 5.51 10.16 8 16.93 8.8&#xA;7.27 .85 12.65 -.79 16.86 -5.13 l3.46 -3.57 -6.04 -5.84 c-3.91 -3.78 -7.44&#xA;-6.23 -10 -6.94 -4.08 -1.13 -12.81 -1.37 -15.46 -.41z M570.86 344.92 c-2.36&#xA;1.92 -2.36 1.92 .14 2.87 6.57 2.48 7 2.48 7 -.02 0 -4.67 -3.29 -5.98 -7.14&#xA;-2.85z M537.75 345.08 c-3.08 1.79 -4.75 6.51 -4.75 13.41 0 6.53 -.04 6.63&#xA;-4.68 11.13 -18.19 17.68 -45.32 26.3 -70.32 22.33 -3.57 -.57 -7.23 -1.25&#xA;-8.13 -1.52 -2.4 -.72 -3.06 3.09 -.87 5.07 1.44 1.31 1.86 1.39 2.18 .43 .31&#xA;-.93 1.95 -.84 7.55 .44 15.88 3.61 31.41 1.29 48.76 -7.29 16.86 -8.34 26.26&#xA;-18.38 27.6 -29.49 .46 -3.79 1.29 -6.23 2.3 -6.8 .87 -.49 1.59 -1.48 1.59&#xA;-2.21 0 -.72 .93 -2.5 2.07 -3.95 2 -2.55 2.01 -2.63 .25 -2.6 -1 .02 -2.61&#xA;.49 -3.57 1.05z M422.02 362.67 c-5.27 9.93 -20.7 23.16 -30.79 26.38 -2.05&#xA;.66 -4.16 1.59 -4.68 2.07 -.52 .48 -1.76 .88 -2.75 .88 -.99 0 -1.8 .51 -1.8&#xA;1.14 0 1.53 12.75 .51 19.57 -1.57 2.79 -.85 7.9 -3.38 11.36 -5.61 3.46&#xA;-2.24 6.58 -3.78 6.93 -3.43 .35 .35 .64 7.69 .64 16.3 0 15.45 -.04 15.76&#xA;-3.1 22.17 -3.99 8.37 -10.31 15.24 -19.78 21.5 -7.93 5.24 -9.5 7.18 -4.87&#xA;6.03 14.77 -3.67 31.89 -18.94 37.23 -33.2 1.97 -5.27 2.03 -6.36 1 -17.72&#xA;-.6 -6.66 -1.97 -18.1 -3.04 -25.41 -1.07 -7.32 -1.94 -13.51 -1.94 -13.75 0&#xA;-1.72 -1.89 .29 -3.98 4.23z M301 394.3 c-17.44 6.64 -33.69 18.28 -44.85&#xA;32.12 -5.94 7.36 -6.26 8.02 -4.58 9.25 2.5 1.83 2.75 1.74 4.83 -1.78 5.33&#xA;-9.02 25.46 -25.31 40.6 -32.86 11.82 -5.89 17.6 -10.1 13.75 -10 -.69 .02&#xA;-5.07 1.49 -9.75 3.27z M427.2 435.92 c-10.94 14.99 -25.39 22.65 -49.2 26.08&#xA;-10.82 1.56 -11.35 1.74 -9 3.08 1.8 1.03 6.01 1.43 15 1.43 13.85 0 21.46&#xA;-1.87 30.22 -7.42 2.47 -1.57 5.46 -3.16 6.64 -3.53 1.97 -.63 2.14 -.32 2.14&#xA;3.73 0 5.22 -3.18 18.24 -5.6 22.92 -4.17 8.07 -22.19 23.58 -32.25 27.74&#xA;-2.11 .87 -3.15 1.73 -3.13 2.26 .02 .53 1.1 .73 3.22 .28 16.92 -3.57 34.06&#xA;-16.08 43.55 -31.79 l3.3 -5.46 .6 -23.11 c.33 -12.71 .36 -23.11 .07 -23.11&#xA;-.29 0 -2.8 3.11 -5.58 6.92z M232.11 457.53 c-6.33 7.21 -9.1 16.58 -5.73&#xA;19.38 1.12 .93 1.52 .45 2.09 -2.59 1 -5.35 3.15 -9.2 7.89 -14.1 3.41 -3.54&#xA;3.88 -4.45 2.64 -5.23 -2.48 -1.57 -3.65 -1.14 -6.89 2.55z M180.09 490.91&#xA;c-2.09 2.09 -4.18 8.5 -12.54 38.54 -5.45 19.57 -5.87 22.83 -3.08 23.9 2.3&#xA;.88 3.75 -2 4.07 -8.09 .33 -6.16 11.26 -43.78 13.89 -47.79 .84 -1.28 2.41&#xA;-2.6 3.49 -2.95 2.11 -.67 60.11 17.25 70.4 21.79 1.41 .62 1.68 .41 1.68&#xA;-1.66 0 -2.45 -.84 -2.83 -18.75 -8.53 -46.89 -14.92 -54.03 -17.12 -55.59&#xA;-17.12 -.91 0 -2.52 .86 -3.57 1.91z M423.07 502.25 c-13.34 14.53 -33.81&#xA;22.75 -56.7 22.75 -4.05 0 -7.37 .41 -7.37 .9 0 1.82 6.77 3.3 17.53 3.82&#xA;12.61 .61 18.56 -.37 28.5 -4.74 8.57 -3.76 9.2 -3.78 8.35 -.24 -4.24 17.67&#xA;-15.68 30.83 -36 41.4 -5.92 3.08 -8.75 5.02 -8.53 5.65 .22 .63 3.49 -.04&#xA;9.75 -2.17 13.74 -4.67 25.16 -12.2 35.3 -23.26 5.25 -5.73 6.15 -7.36 8.13&#xA;-14.66 2.37 -8.73 7.2 -33.64 6.75 -34.73 -.15 -.36 -2.72 2.02 -5.71 5.27z&#xA;M406.05 566.54 c-7.87 6.65 -19.84 12.72 -30.55 15.49 -8 2.07 -31.29 3 -36.8&#xA;1.46 l-2.2 -.62 2.5 2.03 c6.13 4.97 30.58 6.26 44.26 2.33 10.57 -3.04 11.12&#xA;-2.98 10.47 1.05 -.29 1.8 -2.17 7.66 -4.18 13.02 -2.01 5.36 -3.37 10.18&#xA;-3.04 10.72 .33 .54 1.65 .98 2.93 .98 2.01 0 3.18 -1.88 8.83 -14.25 7.08&#xA;-15.5 15.71 -37.87 14.55 -37.71 -.17 .02 -3.22 2.5 -6.77 5.5z" fill="#f3b472" fill-rule="evenodd" stroke="#f3b472" stroke-linejoin="round" stroke-width="0.80"/>
<path d="M581.5 296.71 c-2.41 .58 -8.5 6.21 -8.5 7.86 0 .71 2.22 1.36 5.59 1.64 6.62&#xA;.55 7.46 1.55 6.7 7.98 -.7 5.88 .67 6.27 6.02 1.7 9.57 -8.17 2.43 -22.12&#xA;-9.81 -19.18z M559 325.67 c-5.84 .92 -7 1.44 -7 3.15 0 3.11 2.01 4.14 6.82&#xA;3.48 4.5 -.62 4.5 -.62 3.9 2.4 -.91 4.53 .72 5.45 5.26 2.96 3.3 -1.81 3.9&#xA;-2.69 4.42 -6.48 .33 -2.41 .35 -4.79 .05 -5.28 -.54 -.88 -8.47 -1.01 -13.44&#xA;-.23z M557.94 342.25 c-.03 .14 -.19 1.92 -.34 3.96 -.16 2.04 -.84 4.38&#xA;-1.53 5.21 -.68 .82 -.95 1.97 -.6 2.54 1.37 2.21 3.12 .87 4.19 -3.21 .62&#xA;-2.34 1.45 -5.26 1.84 -6.5 .6 -1.85 .35 -2.25 -1.39 -2.25 -1.16 0 -2.14 .11&#xA;-2.18 .25z M237.65 439.83 c-2.4 2.65 -2.03 4.86 .93 5.6 3.34 .84 5.61 .08&#xA;7.16 -2.4 1.1 -1.76 .9 -2.16 -1.7 -3.51 -3.76 -1.94 -4.38 -1.91 -6.39 .31z&#xA;M254 607.47 c-13.2 2.8 -40.37 9.35 -51.84 12.49 -1.84 .5 -3.93 .69 -4.65&#xA;.41 -.72 -.28 -3.64 .68 -6.49 2.12 -6.39 3.24 -5.97 4.01 5.42 9.74 24.97&#xA;12.58 63.9 24.82 92.56 29.11 32.72 4.89 34.69 5.05 62.5 5.1 29.11 .05 45.58&#xA;-1.6 74.5 -7.46 18.17 -3.68 20.27 -4.27 20.8 -5.88 .35 -1.05 -1.7 -1.14&#xA;-10.43 -.51 -17.2 1.26 -51.48 .76 -67.92 -.98 -34.69 -3.68 -65.28 -11.49&#xA;-67.13 -17.13 -1.13 -3.45 17.52 -8.78 40.72 -11.64 12.5 -1.54 17.97 -2.59&#xA;17.97 -3.46 0 -1.93 -7.96 -2.8 -25.5 -2.78 -20.39 .02 -29.91 1.37 -56.79&#xA;8.02 -11.99 2.97 -23.03 5.39 -24.55 5.39 -5.24 0 -7.01 -4.74 -2.79 -7.5 1.3&#xA;-.85 6.81 -3.04 12.25 -4.85 9.01 -3.01 10.14 -3.68 12.7 -7.47 1.55 -2.29&#xA;2.53 -4.62 2.19 -5.17 -1.02 -1.65 -7.14 -1.01 -23.5 2.46z M440.31 622.5&#xA;c-2.81 2.5 -2.81 2.5 0 5 1.62 1.44 4.03 2.5 5.69 2.5 1.67 0 4.08 -1.06 5.69&#xA;-2.5 2.81 -2.5 2.81 -2.5 0 -5 -1.62 -1.44 -4.03 -2.5 -5.69 -2.5 -1.67 0&#xA;-4.08 1.06 -5.69 2.5z" fill="#f1b342" fill-rule="evenodd" stroke="#f1b342" stroke-linejoin="round" stroke-width="0.80"/>
<path d="M260.02 260.25 c.01 1.79 .68 6.4 1.5 10.25 .82 3.85 1.48 8.12 1.47 9.5 -.01&#xA;1.6 -3.79 7.54 -10.49 16.5 -5.76 7.7 -10.48 14.56 -10.48 15.25 -.01 .69&#xA;-.57 1.26 -1.26 1.27 -1 .01 -1.04 .16 -.22 .75 .56 .4 1.86 3.43 2.87 6.73&#xA;3.32 10.79 15.51 31.76 19.31 33.22 2.51 .96 4.7 -1.12 5.6 -5.32 .46 -2.14&#xA;2.46 -10.53 4.45 -18.64 l3.62 -14.74 -3.79 -7.57 c-2.09 -4.16 -3.59 -7.78&#xA;-3.34 -8.02 .25 -.25 2.38 .23 4.73 1.06 7.15 2.52 7.16 2.52 11.58 -9.35&#xA;l4.04 -10.86 -2.93 -8.89 c-1.61 -4.89 -3.1 -9.08 -3.3 -9.31 -.2 -.23 -2.55&#xA;.6 -5.22 1.85 -4.49 2.1 -5.06 2.16 -7.75 .76 -1.59 -.83 -4.22 -2.9 -5.83&#xA;-4.6 -3.72 -3.91 -4.57 -3.88 -4.55 .16z" fill="#548e3e" fill-rule="evenodd" stroke="#548e3e" stroke-linejoin="round" stroke-width="0.80"/>
<path d="M444.67 394.61 c-1.84 1 -2.63 2.06 -2.25 3.04 .32 .83 .59 2.93 .59 4.68 .03&#xA;5.74 .35 5.86 17.87 6.42 13.85 .44 16.12 .3 16.12 -.98 0 -1.06 -1.51 -1.65&#xA;-5.25 -2.03 -6.97 -.72 -15.45 -4.64 -19.7 -9.11 -1.96 -2.07 -2.87 -3.08&#xA;-3.75 -3.32 -.88 -.24 -1.75 .29 -3.63 1.31z M266.54 515.93 c-.62 1 -4.61&#xA;14.14 -10.05 33.07 -1.82 6.33 -4.64 16.14 -6.27 21.82 l-2.97 10.32 2.59 .98&#xA;c3.51 1.33 6.81 .34 8.75 -2.62 2.15 -3.28 16.41 -51.96 16.41 -56.02 0 -3.19&#xA;-1.58 -5.24 -5.69 -7.36 -1.43 -.74 -2.39 -.8 -2.77 -.19z M166.97 546.59&#xA;c-.54 1.42 -1.09 4.01 -1.23 5.75 l-.24 3.16 22.53 7.5 c32.47 10.81 46.16&#xA;15.03 48.69 15.02 2.69 -.02 3.33 -1.21 6.28 -11.81 2.67 -9.6 2.19 -10.99&#xA;-3.07 -8.85 -1.88 .77 -7.8 2.42 -13.15 3.67 -7.94 1.86 -10 2.04 -11.25 1.01&#xA;-.84 -.7 -1.53 -1.83 -1.53 -2.52 0 -.7 -1.87 -1.55 -4.25 -1.92 -7.57 -1.19&#xA;-24.84 -6.57 -32.53 -10.12 -8.98 -4.15 -9.01 -4.15 -10.25 -.88z" fill="#b66b37" fill-rule="evenodd" stroke="#b66b37" stroke-linejoin="round" stroke-width="0.80"/>
<g mask="url(#bw-holes)">
    <path d="M334.3 282.96 c-3.95 2.41 -6.22 5.77 -6.96 10.3 -1.25 7.73 4.2 10.51 7.59&#xA;3.87 3.14 -6.16 7.54 -6.83 13.37 -2.03 4.22 3.48 6.7 2.8 6.7 -1.85 0 -9.07&#xA;-12.5 -15.29 -20.7 -10.29z M386.16 311.48 c-11.66 6.13 -23.98 6.87 -37.97&#xA;2.27 -7.43 -2.44 -9.52 -1.79 -10.01 3.09 -.4 3.99 4.87 14.13 9.43 18.13&#xA;6.94 6.09 12.13 8.35 20.31 8.82 12.98 .75 21.22 -4.32 26.79 -16.49 2.93&#xA;-6.41 4.12 -15.58 2.29 -17.78 -1.79 -2.16 -3.66 -1.82 -10.86 1.96z m-14.94&#xA;16.57 c3.67 1.02 9.78 5.36 9.78 6.95 0 1.46 -6.18 3.01 -11.9 2.99 -9.77&#xA;-.04 -20.14 -7.43 -13.93 -9.92 3.16 -1.27 11.51 -1.27 16.04 -.01z" fill="#49250c" fill-rule="evenodd" stroke="#49250c" stroke-linejoin="round" stroke-width="0.80"/>
</g>
<path d="M551.4 62.53 c-5.1 2.64 -12.4 9.74 -12.4 12.07 0 .74 4.61 3.65 10.25 6.47&#xA;12.1 6.05 23.82 13.55 32.54 20.81 3.46 2.88 7.06 5.1 8 4.93 5.54 -1.02 7.63&#xA;-19.56 3.32 -29.42 -2.64 -6.04 -7.74 -11.25 -14.51 -14.81 -7.07 -3.72&#xA;-20.05 -3.74 -27.2 -.05z" fill="url(#grad17)" fill-rule="evenodd" stroke="none"/>
<path d="M550.25 325.66 c-.69 .28 -1.25 2.04 -1.25 3.92 0 2.17 -.44 3.29 -.94 3.33&#xA;-.49 .04 -1.04 -1 -1.25 -3.16 -.21 -2.18 -.91 -3.35 -2.13 -3.59 -1.56 -.3&#xA;-1.77 .26 -1.5 3.96 .29 3.95 .57 4.35 3.54 4.95 1.77 .36 4.37 1.4 5.77 2.32&#xA;2.45 1.6 2.58 1.58 3.38 -.58 .89 -2.41 .39 -5.82 -.86 -5.82 -.42 0 -1.03&#xA;-1.35 -1.36 -3 -.6 -2.99 -1.03 -3.29 -3.4 -2.34z M412.26 596.05 l-2.13 5.05&#xA;2.5 .95 c1.37 .52 3.34 .95 4.36 .95 3.89 0 38.26 7.49 49.01 10.68 19.47&#xA;5.78 37.36 12.46 40.21 15.02 2.76 2.48 10.71 -.87 9.5 -4.01 -.72 -1.88&#xA;-27.44 -13.58 -43.84 -19.2 -18.03 -6.17 -50.62 -14.49 -56.79 -14.49 -.38 0&#xA;-1.65 2.27 -2.82 5.05z" fill="#faebb4" fill-rule="evenodd" stroke="#faebb4" stroke-linejoin="round" stroke-width="0.80"/>
<path d="M457.75 584.38 c-7.27 3.95 -7.68 6.08 -1 5.18 6.4 -.86 9.8 -.87 15.87 -.04&#xA;7.8 1.07 7.46 -.82 -.87 -4.94 -3.99 -1.97 -7.48 -3.53 -7.75 -3.46 -.27 .07&#xA;-3.08 1.53 -6.24 3.25z M517.92 585.6 c-3.29 3.52 -8.99 6.31 -14.41 7.06&#xA;-5.27 .72 -7.4 2.58 -5.54 4.82 2.96 3.56 16.09 2.62 21.36 -1.53 2.46 -1.93&#xA;2.48 -1.93 6.81 .55 3.49 2 5.72 2.48 11.35 2.48 7.76 -0 9.87 -.81 9.34&#xA;-3.56 -.27 -1.39 -2.13 -2.25 -7.59 -3.49 -5.2 -1.18 -8.54 -2.66 -11.91&#xA;-5.29 -5.57 -4.34 -6.28 -4.42 -9.42 -1.05z M179.94 590.58 c-1.52 1.84&#xA;-10.24 6.42 -12.21 6.42 -.74 0 -2.22 .67 -3.28 1.5 -1.93 1.49 -1.93 1.51&#xA;.06 3.08 2.43 1.92 9.77 1.36 14.55 -1.11 3.05 -1.57 3.33 -1.56 7.99 .45&#xA;5.25 2.26 10.97 2.68 14.03 1.04 2.79 -1.5 2.38 -3.83 -.82 -4.54 -6.43 -1.42&#xA;-9.98 -2.87 -13.7 -5.56 -4.59 -3.33 -4.88 -3.39 -6.62 -1.29z" fill="#85ece7" fill-rule="evenodd" stroke="#85ece7" stroke-linejoin="round" stroke-width="0.80"/>
<path d="M577.46 286.06 c-6.5 1.89 -13.05 9.47 -14.85 17.19 -.61 2.59 -.44 2.75 2.77&#xA;2.75 2.87 0 3.52 -.43 4.09 -2.69 1.65 -6.57 7.94 -11.31 14.99 -11.31 15.27&#xA;0 20.5 20.96 7.24 29.04 -1.76 1.07 -4.21 1.95 -5.45 1.95 -1.9 0 -2.25 .54&#xA;-2.25 3.5 0 3.94 .85 4.22 7.08 2.36 16.2 -4.85 20.58 -27.75 7.4 -38.62&#xA;-5.79 -4.77 -13.61 -6.33 -21.01 -4.17z M555.75 330.69 c-4.1 1.07 -.54 13.29&#xA;3.88 13.3 3.05 .01 4.59 -2.34 5.03 -7.69 .5 -5.96 -1.88 -7.46 -8.91 -5.62z&#xA;M553.17 354.53 c-3.98 4.13 -1.95 10.47 3.34 10.47 3.12 0 3.36 -.57 2.76&#xA;-6.66 -.59 -6.04 -2.69 -7.35 -6.1 -3.81z" fill="#f18923" fill-rule="evenodd" stroke="#f18923" stroke-linejoin="round" stroke-width="0.80"/>
<path d="M249.1 61.84 c.96 .25 2.69 .1 3.65 -.16 1.06 -.28 .37 -.46 -1.75 -.46 -2.12&#xA;0 -2.96 .34 -1.9 .61z M562.25 313.74 c2.61 .21 6.89 .21 9.5 0 2.61 -.21 .48&#xA;-.37 -4.75 -.37 -5.23 0 -7.36 .17 -4.75 .37z M444.19 440.5 c.03 2.3 .14&#xA;2.59 .5 1.23 .25 -.97 .24 -2.32 -.04 -3 -.27 -.68 -.48 .12 -.46 1.77z&#xA;M252.73 447.58 c-2.44 3.24 -2.16 4.97 1.17 7.35 3.61 2.57 4.74 2.59 6.06&#xA;.13 1.77 -3.31 1.13 -5.49 -2.25 -7.67 -3.26 -2.11 -3.26 -2.11 -4.99 .19z&#xA;M225.5 543.44 c-6.04 1.62 -8.81 2.2 -9.89 3.21 -1.08 1 -.46 2.43 .28 5.74&#xA;.71 3.16 1.91 5.99 2.66 6.28 2.08 .8 19.61 -3.91 20.19 -5.42 .75 -1.95&#xA;-2.73 -12.26 -4.08 -12.09 -.64 .08 -4.76 1.11 -9.16 2.29z" fill="#47b0a1" fill-rule="evenodd" stroke="#47b0a1" stroke-linejoin="round" stroke-width="0.80"/>
<path d="M190.44 509.09 c-.37 .6 1.26 3.07 3.63 5.48 2.37 2.41 4.11 4.54 3.87 4.74&#xA;-3.64 2.93 -5.63 3.56 -9.6 3.01 -5.03 -.69 -5.51 .23 -1.89 3.63 1.34 1.26&#xA;2.58 3.48 2.75 4.92 .38 3.27 3.18 3.51 3.63 .31 .32 -2.24 5.35 -6.18 7.92&#xA;-6.18 .78 -0 1.26 1.42 1.26 3.75 .02 5.16 .97 8.25 2.54 8.25 1.53 0 2.1&#xA;-1.62 2.98 -8.5 .97 -7.54 1.19 -7.97 5.38 -10.33 7.85 -4.41 6.13 -8.85&#xA;-2.08 -5.38 l-5.18 2.19 -6.24 -3.49 c-6.72 -3.76 -7.93 -4.08 -8.97 -2.39z" fill="#186a81" fill-rule="evenodd" stroke="#186a81" stroke-linejoin="round" stroke-width="0.80"/>
<path d="M467.75 384.72 c1.79 .22 4.71 .22 6.5 0 1.79 -.22 .32 -.4 -3.25 -.4 -3.57 0&#xA;-5.04 .18 -3.25 .4z" fill="#548e3e" fill-rule="evenodd" stroke="none"/>
<path d="M201.77 79.72 c1.8 .22 4.5 .22 6 -.01 1.5 -.23 .03 -.41 -3.27 -.4 -3.56 .01&#xA;-4.67 .17 -2.73 .41z" fill="#7cb53b" fill-rule="evenodd" stroke="none"/>
<path d="M560.73 59.72 c1.78 .22 4.93 .22 7 .01 2.12 -.22 .7 -.4 -3.23 -.4 -3.85 -0&#xA;-5.55 .17 -3.77 .39z M563.77 325.72 c1.8 .22 4.5 .22 6 -.01 1.5 -.23 .03&#xA;-.41 -3.27 -.4 -3.56 .01 -4.67 .17 -2.73 .41z M332.75 666.72 c1.79 .22 4.71&#xA;.22 6.5 0 1.79 -.22 .32 -.4 -3.25 -.4 -3.57 0 -5.04 .18 -3.25 .4z M362.73&#xA;666.72 c1.78 .22 4.93 .22 7 .01 2.12 -.22 .7 -.4 -3.23 -.4 -3.85 -0 -5.55&#xA;.17 -3.77 .39z" fill="#faebb4" fill-rule="evenodd" stroke="none"/>
<path d="M364.73 462.72 c1.78 .22 4.93 .22 7 .01 2.12 -.22 .7 -.4 -3.23 -.4 -3.85 -0&#xA;-5.55 .17 -3.77 .39z" fill="#cf8c4e" fill-rule="evenodd" stroke="none"/>
<path d="M378 252.29 c-1.82 .92 -2.5 2.07 -2.5 4.24 0 2.91 .13 2.99 6.33 3.67 3.48&#xA;.38 8.3 1.45 10.71 2.37 7.85 3 9.48 -.71 2.87 -6.51 -5.21 -4.58 -12.63&#xA;-6.18 -17.41 -3.76z M332.18 258.14 c-4.55 1.31 -11.78 8.76 -13.08 13.48&#xA;-1.54 5.6 .01 6.25 5.08 2.13 5.18 -4.19 9.11 -6.26 13.82 -7.25 6.3 -1.32&#xA;8.03 -4.97 3.78 -7.95 -2.48 -1.74 -4.69 -1.83 -9.6 -.42z M383.42 275.37&#xA;c-3.96 1.79 -7.02 5.7 -7.82 10 -1.46 7.79 3.99 11.96 6.81 5.21 2.5 -5.99&#xA;6.94 -7.08 12.28 -3.01 4.35 3.32 6.73 2.89 7.13 -1.3 .25 -2.58 -.45 -4.03&#xA;-3.5 -7.3 -4.38 -4.69 -9.65 -5.97 -14.89 -3.6z" fill="#572f12" fill-rule="evenodd" stroke="none"/>
<path d="M550 359.5 c0 1.38 .45 2.5 1 2.5 .55 0 1 -1.12 1 -2.5 0 -1.38 -.45 -2.5 -1&#xA;-2.5 -.55 0 -1 1.12 -1 2.5z" fill="#d49756" fill-rule="evenodd" stroke="none"/>
<path d="M214.68 546.75 c-.24 .41 -.07 1.65 .37 2.75 .7 1.75 .81 1.65 .87 -.75 .07&#xA;-2.71 -.4 -3.46 -1.25 -2z" fill="#52a48e" fill-rule="evenodd" stroke="none"/>
<path d="M122.69 569.38 c-.47 1.22 .02 2.97 1.39 5 1.16 1.72 1.79 2.22 1.39 1.12&#xA;-.39 -1.1 -1.02 -3.35 -1.39 -5 -.57 -2.53 -.78 -2.71 -1.39 -1.12z" fill="#35a5a6" fill-rule="evenodd" stroke="none"/>
<path d="M334.3 282.96 c-3.95 2.41 -6.22 5.77 -6.96 10.3 -1.25 7.73 4.2 10.51 7.59&#xA;3.87 3.14 -6.16 7.54 -6.83 13.37 -2.03 4.22 3.48 6.7 2.8 6.7 -1.85 0 -9.07&#xA;-12.5 -15.29 -20.7 -10.29z M386.16 311.48 c-11.66 6.13 -23.98 6.87 -37.97&#xA;2.27 -7.43 -2.44 -9.52 -1.79 -10.01 3.09 -.4 3.99 4.87 14.13 9.43 18.13&#xA;6.94 6.09 12.13 8.35 20.31 8.82 12.98 .75 21.22 -4.32 26.79 -16.49 2.93&#xA;-6.41 4.12 -15.58 2.29 -17.78 -1.79 -2.16 -3.66 -1.82 -10.86 1.96z M371.22&#xA;328.04 c3.67 1.02 9.78 5.36 9.78 6.95 0 1.43 -6.13 3.01 -11.69 3.01 -6.61 0&#xA;-17.31 -4.99 -17.31 -8.07 0 -2.5 12.57 -3.73 19.22 -1.88z M169.92 490.19&#xA;c-.65 2.63 -.93 3.69 -1.55 5.81 -.65 2.24 -.55 2.36 .94 1.14 .91 -.75 1.4&#xA;-1.78 1.09 -2.29 -.32 -.51 -.06 -1.55 .56 -2.3 .81 -.98 .83 -1.55 .09 -2.02&#xA;-.58 -.36 -1.08 -.51 -1.13 -.34z M185.54 569.93 c-.67 1.08 .6 2.02 3.48&#xA;2.58 2.34 .45 1.74 -1.02 -1.02 -2.5 -1.19 -.64 -2.1 -.66 -2.46 -.07z&#xA;M293.04 578.92 c-2.27 4.45 -2.66 6.58 -1.02 5.57 1.78 -1.1 5.02 -8.35 4.02&#xA;-8.97 -.52 -.32 -1.87 1.21 -2.99 3.41z" fill="#49250c" fill-rule="evenodd" stroke="#49250c" stroke-linejoin="round" stroke-opacity="0.65" stroke-width="1.50"/>
</svg>